<svg overflow="hidden" viewBox="0, 0, 250.64, 256" id="bf8b6404-4998-42af-aecd-81b32646fcc7" xmlns="http://www.w3.org/2000/svg" xmlns:xlink="http://www.w3.org/1999/xlink" xmlns:xml="http://www.w3.org/XML/1998/namespace" version="1.1"><defs /><g id="b"><g><path d="M160.17 237.09 C142.35 237.09 127.91 238.58 127.91 240.42 C127.91 242.26 142.35 243.75 160.17 243.75 C177.99 243.75 192.43 242.26 192.43 240.42 C192.43 238.58 177.99 237.09 160.17 237.09" style="fill:#E5EBFF;" /><path d="M59.83 235.6 C40.68 235.6 25.16 237.65 25.16 240.18 C25.16 242.71 40.68 244.76 59.83 244.76 C78.98 244.76 94.5 242.71 94.5 240.18 C94.5 237.65 78.98 235.6 59.83 235.6" style="fill:#E5EBFF;" /><path d="M107.65 221.13 C106.49 221.13 105.35 221.13 104.22 221.15 C104.9 221.31 105.28 221.49 105.28 221.68 C105.28 222.38 100.2 222.94 93.93 222.94 C90.22 222.94 86.93 222.74 84.86 222.44 C79.91 223.15 76.9 224.09 76.9 225.13 C76.9 227.34 90.67 229.14 107.66 229.14 C124.65 229.14 138.42 227.34 138.42 225.13 C138.42 222.92 124.65 221.12 107.66 221.12" style="fill:#F8EAF1;" /><path d="M227.48 145 C227.48 169.42 207.69 189.21 183.27 189.21 C158.85 189.21 139.06 169.42 139.06 145 C139.06 120.58 158.85 100.79 183.27 100.79 C207.69 100.79 227.48 120.58 227.48 145" style="fill:#CAE1FC;" /><path d="M151.64 11.85 C136.15 11.85 121.92 17.23 110.72 26.23 C144.03 35.55 168.46 66.13 168.46 102.42 C168.46 102.73 168.46 103.03 168.46 103.34 C173.09 101.69 178.08 100.8 183.27 100.8 C192.81 100.8 201.65 103.82 208.87 108.97 C214.08 99.58 217.05 88.77 217.05 77.27 C217.05 41.15 187.77 11.86 151.64 11.86" style="fill:#F4E0EA;" /><path d="M183.27 100.79 C178.08 100.79 173.09 101.69 168.46 103.33 C168.3 117.57 164.37 130.91 157.63 142.4 C179.72 140.4 198.63 127.42 208.88 108.95 C201.66 103.81 192.82 100.78 183.28 100.78" style="fill:#CFCBE7;" /><path d="M89.36 23.31 C45.67 23.31 10.26 58.72 10.26 102.41 C10.26 146.1 45.68 181.51 89.36 181.51 C109.65 181.51 128.17 173.87 142.17 161.3 C140.17 156.25 139.06 150.75 139.06 144.99 C139.06 143.81 139.11 142.64 139.2 141.48 C109.02 135.67 86.23 109.12 86.23 77.25 C86.23 56.61 95.79 38.21 110.72 26.22 C103.92 24.32 96.76 23.3 89.36 23.3" style="fill:#E0E2FF;" /><path d="M139.2 141.49 C139.11 142.65 139.06 143.82 139.06 145 C139.06 150.76 140.16 156.26 142.17 161.31 C148.25 155.86 153.47 149.49 157.63 142.4 C155.66 142.58 153.66 142.67 151.65 142.67 C147.4 142.67 143.24 142.26 139.21 141.49" style="fill:#CBD6FE;" /><path d="M110.72 26.22 C95.79 38.21 86.23 56.62 86.23 77.25 C86.23 109.12 109.02 135.67 139.2 141.48 C140.59 123.8 152.38 109.04 168.46 103.32 C168.46 103.01 168.46 102.71 168.46 102.4 C168.46 66.11 144.03 35.53 110.72 26.21" style="fill:#DCD6F6;" /><path d="M168.46 103.33 C152.38 109.05 140.59 123.8 139.2 141.49 C143.23 142.27 147.39 142.67 151.64 142.67 C153.66 142.67 155.65 142.58 157.62 142.4 C164.36 130.91 168.29 117.57 168.45 103.33" style="fill:#CDCDF5;" /><path d="M178.99 211.53 C178.99 213.2 152.48 214.56 119.78 214.56 C87.08 214.56 60.56 213.2 60.56 211.53 C60.56 209.86 87.07 208.5 119.78 208.5 C152.49 208.5 178.99 209.85 178.99 211.53 z" style="fill:#B0BCD8;" /><path d="M93.93 220.42 C87.66 220.42 82.58 220.99 82.58 221.68 C82.58 221.97 83.43 222.23 84.87 222.44 C89.78 221.74 96.58 221.26 104.24 221.15 C102.43 220.72 98.5 220.42 93.94 220.42" style="fill:#F4E0EA;" /><path d="M104.22 221.15 C96.57 221.26 89.76 221.74 84.85 222.44 C86.92 222.75 90.21 222.94 93.92 222.94 C100.19 222.94 105.27 222.37 105.27 221.68 C105.27 221.49 104.89 221.31 104.21 221.15" style="fill:#EFD1E0;" /><path d="M202.97 44.26 C200.15 44.26 197.86 46.55 197.86 49.37 C197.86 52.19 200.15 54.48 202.97 54.48 C205.79 54.48 208.08 52.19 208.08 49.37 C208.08 46.55 205.79 44.26 202.97 44.26" style="fill:#F7E9F0;" /><path d="M226.6 98.47 C220.95 98.47 216.37 103.05 216.37 108.7 C216.37 114.35 220.95 118.93 226.6 118.93 C232.25 118.93 236.83 114.35 236.83 108.7 C236.83 103.05 232.25 98.47 226.6 98.47" style="fill:#E0E2FF;" /></g><g><path d="M176.79 208.06 C176.79 210.02 175.22 211.61 173.29 211.61 L71.68 211.61 C69.75 211.61 68.18 210.02 68.18 208.06 L68.18 36.56 C68.18 34.6 69.75 33.01 71.68 33.01 L173.29 33.01 C175.22 33.01 176.79 34.6 176.79 36.56 L176.79 208.06" style="fill:#2E3054;" /><path d="M173.29 33.01 L71.68 33.01 C69.75 33.01 68.18 34.6 68.18 36.56 L68.18 174.71 L74.6 168.2 L74.6 46.4 L74.6 46.4 C74.6 44.84 75.98 43.57 77.69 43.57 L167.28 43.57 C168.99 43.57 170.37 44.84 170.37 46.4 L170.37 71.22 L176.79 64.72 L176.79 36.56 C176.79 34.6 175.22 33.01 173.29 33.01" style="fill:#585976;" /><path d="M170.37 183.13 C170.37 184.69 168.99 185.96 167.28 185.96 L77.69 185.96 C75.98 185.96 74.6 184.7 74.6 183.13 L74.6 46.4 C74.6 44.84 75.98 43.57 77.69 43.57 L167.28 43.57 C168.99 43.57 170.37 44.84 170.37 46.4 L170.37 183.13" style="fill:white;" /><path d="M156.47 144.7 L88.5 144.7 L88.5 143 L156.47 143 L156.47 144.7" style="fill:#E4D9EB;" /><rect x="88.5" y="148.09" width="67.97" height="1.7" style="fill:#E4D9EB;" /><rect x="88.5" y="153.19" width="67.97" height="1.7" style="fill:#E4D9EB;" /><rect x="88.5" y="158.29" width="67.97" height="1.7" style="fill:#E4D9EB;" /><rect x="88.5" y="172.59" width="67.97" height="2.87" style="fill:#E4D9EB;" /><path d="M167.28 43.57 L77.69 43.57 C75.98 43.57 74.6 44.84 74.6 46.4 L74.6 100.96 C75.33 99.9 75.91 98.76 76.33 97.58 C78.37 100.14 81.5 101.81 85.03 101.89 C88.08 101.95 90.86 100.81 92.95 98.91 C93.3 99.14 93.66 99.33 94.04 99.45 C93.58 102.24 94.41 105.21 96.55 107.38 C100.1 110.98 105.9 111.03 109.5 107.48 C110.57 106.42 111.33 105.16 111.77 103.82 C113.58 105.22 116.19 105.11 117.87 103.46 C119.05 102.3 119.47 100.66 119.15 99.16 C119.59 99.87 120.12 100.55 120.73 101.17 C125.11 105.61 132.26 105.66 136.7 101.29 C137.09 100.9 137.45 100.49 137.78 100.06 C137.92 100.31 138.09 100.55 138.3 100.77 C139.37 101.85 141.03 101.99 142.25 101.2 L142.38 101.34 C145.93 104.94 151.73 104.99 155.33 101.44 C156.76 100.03 157.6 98.25 157.9 96.41 C159.46 97.56 161.37 98.25 163.45 98.3 C166.14 98.36 168.58 97.3 170.38 95.58 L170.38 46.4 C170.38 44.84 169 43.57 167.29 43.57" style="fill:#7AB6F6;" /><path d="M131.02 198.74 C131.02 203.47 127.19 207.3 122.46 207.3 C117.73 207.3 113.9 203.47 113.9 198.74 C113.9 194.01 117.73 190.18 122.46 190.18 C127.19 190.18 131.02 194.01 131.02 198.74 z" style="fill:#596A83;" /><path d="M128.97 198.74 C128.97 202.34 126.06 205.24 122.46 205.24 C118.86 205.24 115.96 202.33 115.96 198.74 C115.96 195.15 118.87 192.23 122.46 192.23 C126.05 192.23 128.97 195.14 128.97 198.74 z" style="fill:#2E3054;" /><path d="M119.1 92.33 C119.16 92.21 119.17 92.07 119.13 91.94 L117.93 87.4 L123.2 83.31 L128 91.62 L128.95 89.93 C129.09 89.73 129.13 89.47 129.05 89.24 L127.87 78.76 C127.87 78.76 130.27 76.18 132.12 74.33 C133.97 72.48 134.43 70.84 134.13 69.72 C134.1 69.54 134 69.35 133.85 69.19 C133.68 69.02 133.49 68.93 133.31 68.89 C132.18 68.59 130.55 69.05 128.7 70.9 C126.85 72.75 124.26 75.14 124.26 75.14 L113.78 73.96 C113.55 73.88 113.29 73.92 113.09 74.06 L111.4 75.01 L119.71 79.81 L115.61 85.08 L111.08 83.88 C110.95 83.84 110.81 83.85 110.69 83.91 L109.5 84.45 L115.09 87.95 L118.58 93.54 L119.12 92.35 z" style="fill:white;" /><rect x="82.22" y="51.55" width="83.63" height="11.53" style="fill:white;" /><path d="M157.08 116.68 L89.11 116.68 C88.64 116.68 88.27 117.05 88.27 117.52 L88.27 128.18 C88.27 128.64 88.65 129.02 89.11 129.02 L157.07 129.02 C157.53 129.02 157.91 128.65 157.91 128.18 L157.91 117.52 C157.91 117.06 157.54 116.68 157.07 116.68" style="fill:#E4D9EB;" /><path d="M87.72 115.01 L155.68 115.01 C156.14 115.01 156.52 115.39 156.52 115.85 L156.52 126.51 C156.52 126.97 156.14 127.35 155.68 127.35 L87.72 127.35 C87.26 127.35 86.88 126.97 86.88 126.51 L86.88 115.85 C86.88 115.39 87.26 115.01 87.72 115.01 z" style="fill:#FA7071;" /><path d="M161.64 59.4 L159.71 57.47 C160.48 56.42 160.4 54.94 159.45 53.99 C158.94 53.48 158.27 53.2 157.55 53.2 C156.83 53.2 156.16 53.48 155.65 53.99 C154.6 55.04 154.6 56.74 155.65 57.79 C156.16 58.3 156.83 58.58 157.55 58.58 C158.13 58.58 158.68 58.39 159.13 58.05 L161.06 59.97 C161.14 60.05 161.24 60.09 161.35 60.09 C161.46 60.09 161.56 60.05 161.63 59.97 C161.79 59.81 161.79 59.56 161.63 59.4 z M156.23 57.22 C155.5 56.49 155.5 55.3 156.23 54.56 C156.59 54.2 157.06 54.01 157.56 54.01 C158.06 54.01 158.53 54.2 158.89 54.56 C159.63 55.29 159.63 56.49 158.89 57.22 C158.18 57.93 156.94 57.93 156.23 57.22 z" style="fill:#2E3054;" /><path d="M40.67 77.04 C40.67 80.19 38.11 82.75 34.96 82.75 C31.81 82.75 29.25 80.19 29.25 77.04 C29.25 73.89 31.81 71.33 34.96 71.33 C38.11 71.33 40.67 73.89 40.67 77.04 z" style="fill:#93C8F6;" /><path d="M55.32 57.11 C55.32 63.01 50.54 67.79 44.64 67.79 C38.74 67.79 33.96 63.01 33.96 57.11 C33.96 51.21 38.74 46.43 44.64 46.43 C50.54 46.43 55.32 51.21 55.32 57.11 z" style="fill:#BFD4F8;" /><path d="M85.62 75.33 C79.86 75.33 75.19 80 75.19 85.76 C75.19 91.52 79.86 96.19 85.62 96.19 C91.38 96.19 96.05 91.52 96.05 85.76 C96.05 80 91.38 75.33 85.62 75.33" style="fill:#A2CCF9;" /><path d="M94.83 104.95 C94.14 105.81 93.73 106.91 93.73 108.1 C93.73 110.89 95.99 113.15 98.78 113.15 C100.85 113.15 102.64 111.9 103.41 110.11 C103.3 110.11 103.19 110.11 103.07 110.11 C100.7 110.11 98.34 109.2 96.55 107.38 C95.83 106.65 95.25 105.82 94.83 104.94" style="fill:white;" /><path d="M98.77 103.05 C97.17 103.05 95.75 103.79 94.82 104.95 C95.24 105.83 95.82 106.65 96.54 107.39 C98.33 109.21 100.7 110.12 103.06 110.12 C103.17 110.12 103.28 110.12 103.4 110.12 C103.67 109.5 103.82 108.82 103.82 108.11 C103.82 105.32 101.56 103.06 98.77 103.06" style="fill:#A2CCF9;" /><path d="M156.22 144.7 L152.27 144.7 C152.88 144.95 153.54 145.09 154.24 145.09 C154.94 145.09 155.61 144.95 156.21 144.7 M154.24 134.83 C151.41 134.83 149.11 137.13 149.11 139.96 C149.11 141.1 149.48 142.15 150.11 143 L156.47 143 L156.47 144.59 C158.19 143.76 159.38 142 159.38 139.96 C159.38 137.13 157.08 134.83 154.25 134.83" style="fill:white;" /><path d="M156.47 143 L150.11 143 C150.66 143.75 151.41 144.34 152.27 144.7 L156.22 144.7 C156.3 144.66 156.39 144.63 156.47 144.59 L156.47 143" style="fill:#EFE8F3;" /></g><g><path d="M93.51 222.32 C92.06 221.99 90.89 221.16 89.44 220.64 C88.14 220.18 86.55 219.99 85.36 219.43 C83.1 218.37 80.88 216.12 79.81 214.05 C78.68 211.89 78.39 209.02 78.91 206.63 C79.45 204.16 81.29 201.7 81.16 199.18 C82.78 200.75 83.84 202.33 85.87 203.61 C87.94 204.9 89.56 206 90.64 208.16 C91.61 210.1 91.71 212.35 92.16 214.4 C92.6 216.41 94.05 218.46 94.02 220.5 L93.51 222.33 z" style="fill:#7AB6F6;" /><path d="M87.08 214.4 C89.48 213.49 89.53 208.84 89.38 206.34 C89.19 206.12 88.99 205.92 88.77 205.72 C89 208.39 88.95 213.25 86.77 213.91 C85.78 212.37 84.96 210.83 84.3 209.36 C85.9 208.33 86.55 206.04 86.81 204.22 C86.64 204.11 86.46 203.99 86.28 203.88 C86.06 205.59 85.5 207.84 84.06 208.83 C82.28 204.73 81.68 201.26 81.47 199.52 C81.36 199.4 81.25 199.29 81.13 199.17 C81.15 199.6 81.11 200.03 81.04 200.46 C81.23 201.68 81.56 203.36 82.17 205.33 C81.23 205.43 80.27 205.21 79.43 204.9 C79.36 205.08 79.3 205.25 79.23 205.43 C79.99 205.71 80.84 205.92 81.71 205.92 C81.89 205.92 82.07 205.92 82.24 205.89 L82.19 205.39 C82.64 206.83 83.24 208.42 84.03 210.1 C82.1 210.83 79.99 210.63 78.72 210.39 C78.74 210.59 78.78 210.79 78.81 210.99 C79.41 211.1 80.16 211.18 80.98 211.18 C82.02 211.18 83.17 211.04 84.28 210.61 C84.99 212.07 85.86 213.58 86.9 215.11 C85.37 216.39 83.33 216.7 81.78 216.72 C81.96 216.91 82.14 217.09 82.33 217.28 C83.87 217.19 85.74 216.79 87.21 215.58 C88.77 217.81 90.73 220.07 93.15 222.21 C93.26 222.24 93.38 222.28 93.5 222.31 L93.62 221.88 C90.87 219.46 88.73 216.9 87.08 214.39 z" opacity="0.4" style="fill:white;" /><path d="M93.95 221.57 C90.86 220.53 84.24 212.57 86.61 209.23 C89 209.43 90.11 210.46 90.95 212.67 C91.12 208.81 90.51 204.98 91.63 201.25 C92.34 198.89 95.46 191.7 98.35 192.83 C98.57 199.53 96.94 207.55 94.56 213.39 C95.39 210.22 100.51 206.75 99.64 212.09 C99.05 215.66 96.18 219.98 94.15 222.58 L93.95 221.59 z" style="fill:#DA97B8;" /><path d="M103.56 219.77 C101.79 221.39 100.09 221.58 97.85 221.4 C95.99 221.25 94.39 221.66 93.88 223.54 C94.45 221.46 94.37 219.56 95.41 217.58 C96.29 215.9 97.97 214.22 99.84 213.72 C99.88 213.52 104.47 211.66 105.46 209.74 C106.77 212.75 106.09 217.47 103.56 219.77 z" style="fill:#7AB6F6;" /></g><g><path d="M30.16 91.08 C30.16 91.08 30.08 91.08 30.04 91.08 C23.97 91.25 22.36 102.01 21.87 106.42 C21.02 113.96 20.29 121.25 22.13 128.59 C23.56 134.3 17.09 134.21 15.81 139.66 C14.46 145.43 17.58 150.31 20.91 154.64 C22.73 157.01 23.9 157.81 21.75 159.94 C19.73 161.95 18.24 161.54 18.05 164.87 C17.67 171.12 21.81 176.39 27.67 178.12 C27.91 178.19 28.15 178.25 28.4 178.31 C29.33 178.53 30.29 178.63 31.27 178.63 C37.14 178.63 43.63 174.92 47.34 170.79 C49.49 168.39 50.56 165.21 49.1 162.09 C47.85 159.41 44.81 158.53 42.62 156.87 C42.77 156.58 42.99 156.37 43.03 156.01 C43.69 150.81 51.54 150.76 47.51 144.24 C45.36 140.77 39.32 138.33 39.58 134.11 C39.89 129.03 46.24 126.61 45.42 120.89 C44.73 116.03 40.89 115.22 37.59 112.79 C35 110.89 35.72 108.56 35.6 105.19 C35.49 101.6 35.76 91.05 30.16 91.06" style="fill:white;" /><path d="M27.67 178.12 C21.81 176.4 17.67 171.12 18.05 164.87 C18.25 161.54 19.74 161.96 21.75 159.94 C23.89 157.81 22.72 157 20.91 154.64 C17.59 150.31 14.46 145.43 15.81 139.66 C17.09 134.2 23.56 134.29 22.13 128.58 C20.29 121.24 21.02 113.94 21.87 106.41 C22.37 102 23.97 91.23 30.04 91.07 C35.76 90.91 35.49 101.59 35.6 105.2 C35.71 108.57 35 110.9 37.58 112.8 C40.88 115.23 44.72 116.04 45.41 120.9 C46.22 126.62 39.88 129.04 39.57 134.12 C39.31 138.34 45.35 140.78 47.5 144.25 C51.53 150.76 43.68 150.81 43.02 156.02 C42.98 156.37 42.76 156.58 42.61 156.88 C44.81 158.54 47.84 159.42 49.09 162.1 C50.55 165.21 49.48 168.4 47.33 170.8 C43.01 175.62 34.88 179.86 28.39 178.31 C28.15 178.25 27.9 178.19 27.66 178.12 z" style="fill:#FAA0A1;" /><path d="M41.26 215.92 C41.26 216.39 36.46 216.78 30.55 216.78 C24.64 216.78 19.84 216.39 19.84 215.92 C19.84 215.45 24.63 215.05 30.55 215.05 C36.47 215.05 41.26 215.44 41.26 215.92 z" style="fill:#B0BCD8;" /><path d="M45.46 160.93 L30.18 176.21 L30.18 172.01 L44.24 157.94 C44.15 157.89 44.07 157.84 43.98 157.79 L30.18 171.59 L30.18 167.03 L30.29 166.92 L30.18 166.81 L30.18 159.71 L45.67 144.22 L45.47 144.02 L30.19 159.3 L30.19 154.17 L43.85 140.51 C43.77 140.45 43.7 140.39 43.63 140.33 L30.2 153.76 L30.2 151.4 L42.38 139.22 C42.31 139.15 42.25 139.09 42.17 139.02 L30.2 150.99 L30.2 146.12 L30.31 146.01 L30.2 145.9 L30.2 142.75 L30.31 142.64 L30.2 142.53 L30.2 135.12 L45.27 120.06 C45.24 119.95 45.21 119.84 45.18 119.73 L30.2 134.71 L30.2 130.51 L43.68 117.03 C43.61 116.96 43.55 116.89 43.48 116.82 L30.2 130.1 L30.2 124 L30.31 123.89 L30.2 123.78 L30.2 120.93 L30.31 120.82 L30.2 120.71 L30.2 110.53 L35.62 105.12 C35.62 104.99 35.62 104.86 35.62 104.72 L30.21 110.13 L30.21 104.95 L30.32 104.84 L30.21 104.73 L30.21 91.11 L29.92 91.11 L29.92 104.44 L23.57 98.09 C23.54 98.2 23.5 98.3 23.47 98.4 L29.92 104.85 L29.92 120.43 L21.34 111.85 C21.33 111.97 21.32 112.1 21.31 112.23 L29.92 120.84 L29.92 123.5 L21.13 114.71 C21.13 114.84 21.12 114.97 21.11 115.1 L29.92 123.91 L29.92 142.25 L20.99 133.32 C20.92 133.39 20.86 133.46 20.79 133.53 L29.92 142.67 L29.92 145.64 L19.21 134.93 C19.13 134.99 19.06 135.06 18.98 135.12 L29.92 146.06 L29.92 166.55 L22.5 159.13 C22.44 159.21 22.39 159.29 22.32 159.37 L29.92 166.97 L29.92 212.78 L30.21 212.78 L30.21 176.65 L45.7 161.16 L45.5 160.95 z" style="fill:white;" /><rect x="29.98" y="178.54" width="0.47" height="34.22" style="fill:#2A2B7C;" /><path d="M43.43 185.91 C42.89 184.78 41.92 184.13 40.53 183.96 C38.94 183.77 37.53 184.32 36.34 185.58 C31.16 191.07 31.34 208.71 31.53 214.09 C29.88 208.6 22.84 186.87 18.13 198.39 C13.16 210.53 29.17 214.69 31.58 215.25 C31.58 215.45 31.6 215.59 31.6 215.65 L31.65 216.55 L32.14 215.78 C32.73 214.84 46.66 192.69 43.44 185.92 z M32.13 214.66 C31.96 210.24 31.59 191.45 36.76 185.98 C37.68 185.01 38.74 184.51 39.92 184.51 C40.09 184.51 40.27 184.51 40.46 184.54 C41.65 184.68 42.45 185.21 42.9 186.16 C45.65 191.94 34.63 210.56 32.13 214.66 z" style="fill:#888EC6;" /></g><g><path d="M34.89 172.62 C34.75 175.11 33.98 180.5 33.02 181.18 C32.06 181.87 33.02 179.91 32.73 177.94 C32.69 177.7 30.72 183.68 30.43 184.25 C30.15 184.82 27.49 183.83 27.28 183.09 C26.69 181.01 29.31 174.28 31.12 172.47 L34.89 172.61 z" style="fill:#BA6B4F;" /><path d="M44.52 131.16 C44.52 131.16 39.71 130.28 37.57 140.81 C35.43 151.34 30.08 174.19 30.08 174.19 C30.08 174.19 35.51 175.14 34.66 175.17 C33.81 175.2 44.45 149.83 44.45 149.83 C44.45 149.83 49.96 133.75 44.52 131.16 z" style="fill:#7395D6;" /><g><path d="M61.33 111.12 C59.01 107.93 55.54 105.54 52.07 106.56 C52.07 106.56 47.52 109.68 52.44 119.81 L49.02 119.98 C53.98 123.07 49.92 131.85 47.89 136.15 C51.72 135.47 55.88 134.59 59.76 135.03 C59.85 131.99 59.55 128.29 59.6 125.02 C61.79 124.15 63.74 121.99 63.84 120.09 C64.18 113.38 63.67 114.3 61.35 111.11 z" style="fill:#BA6B4F;" /><path d="M50.8 240.42 C50.92 237.34 52.04 233.83 51.8 230.9 C47.83 230.09 46.99 235.03 47.22 237.89 C47.28 238.6 48.26 245.42 47.69 245.62 C50.76 244.94 55.08 242.72 57.05 240.25 C55.41 238.33 52.57 239.37 50.81 240.42 z" style="fill:#BA6B4F;" /><g><path d="M51.91 239.8 C51.91 239.8 51.76 239.9 51.68 239.97 C51.68 239.97 51.78 239.87 51.91 239.8 z" style="fill:#2E3054;" /><path d="M47.22 243.14 C47.22 243.14 53.16 241.54 52.77 240.38 C52.54 239.69 52.2 239.68 51.96 239.78 C53.64 239.05 55.66 238.74 56.94 240.24 C54.98 242.71 50.17 245.27 47.11 245.95 C47.08 245.62 46.99 245.41 46.88 244.69 L47.21 243.14 z" style="fill:#2E3054;" /></g><path d="M65.55 231.88 C59.69 232.31 64.83 244.22 63.26 244.61 C66.31 243.85 70.57 241.51 72.47 239 C70.78 237.12 67.97 238.23 66.23 239.33 C66.54 239.13 66.85 232.74 66.72 231.93 C66.28 231.87 65.89 231.85 65.54 231.88 z" style="fill:#BA6B4F;" /><path d="M64.92 169.37 L72.56 205.31 L67.9 236.92 L60.86 238.09 L62.94 207.29 L54.45 189.46 C54.45 189.46 55.71 199.66 55.22 205.6 C54.73 211.53 52.98 235.5 53.03 236.72 C53.12 238.76 46.82 238.81 46.55 237.41 C46.38 236.57 43.18 213.07 43.01 204.52 C42.84 195.98 40.82 181.06 44.82 171.08 C44.82 171.08 61.49 171.29 64.91 169.38 z" style="fill:#2A2B7C;" /><g><path d="M67.33 238.68 C67.33 238.68 67.18 238.79 67.1 238.85 C67.1 238.85 67.19 238.75 67.33 238.68 z" style="fill:#2E3054;" /><path d="M62.73 242.14 C62.73 242.14 68.63 240.39 68.21 239.24 C67.96 238.56 67.62 238.55 67.39 238.66 C69.05 237.89 71.06 237.53 72.38 239 C70.49 241.51 65.75 244.2 62.7 244.96 C62.67 244.63 62.57 244.42 62.44 243.71 L62.73 242.15 z" style="fill:#2E3054;" /></g><path d="M47.3 112.72 C46.93 117.32 47.52 120.77 50.88 121.43 C54.24 122.08 60.29 120.49 60.29 120.49 C60.29 120.49 61.45 118.98 59.39 118.15 C57.32 117.31 57.75 115.08 59.66 115.61 C59.66 115.61 60.32 116.38 62.22 115.25 C64.12 114.12 64.15 113.01 64.29 111.44 C64.46 109.65 62.33 107.79 60.72 108.75 C63.83 102.33 50.36 104.13 48.17 109.1 C47.71 110.15 47.41 111.41 47.31 112.72 z" style="fill:#2E3054;" /><path d="M64.14 130.06 C66.24 130.5 69.94 136.86 67.98 142.38 C66.02 147.9 66.05 171.35 66.05 171.35 L43.7 172.48 C43.7 172.48 43.98 166.46 42.99 160.56 C42 154.66 38.61 134.56 44.27 131.17 C49.93 127.77 54.82 129.41 58.67 129.66 C60.45 129.77 62.44 129.7 64.15 130.06 z" style="fill:#7AB6F6;" /></g><path d="M83.58 140.9 C83.28 140.81 82.93 140.61 82.53 140.28 C81.94 139.79 81.08 139.09 81.64 138.41 C84.22 135.26 86.96 131.37 88.8 127.81 C89.66 126.14 89.82 125.13 91.22 123.81 C92.97 125.32 89.96 127.73 90.81 129.55 C91.17 130.31 92.39 130.65 92.76 131.41 C93.32 132.54 91.95 134.5 91.51 134.71 C91.07 134.92 89.46 135.73 88.36 136.26 C87.26 136.79 86.31 138.23 85.99 138.79 C85.24 140.08 84.7 141.25 83.58 140.91 z" style="fill:#BA6B4F;" /><path d="M65.54 130.73 C67.36 130.52 72.99 146.24 73.5 146.67 C74.01 147.1 84.54 133.59 84.54 133.59 L88.63 137.07 C88.63 137.07 73.36 157.54 72.68 157.51 C72 157.48 63.67 151.68 62.53 145.51 C61.39 139.34 63.72 130.94 65.54 130.73 z" style="fill:#7395D6;" /></g><g><path d="M184.72 145.04 C184.72 147.34 184.58 149.69 184.72 151.99 C184.87 154.39 185.77 156.05 184.32 158.33 C183.25 160.02 181.8 161.33 180.57 162.97 C179.76 164.04 178.55 166.78 177.4 167.29 C175.96 164.08 173.99 161.75 174.5 157.91 C175.13 153.08 179.11 149.53 182.47 146.46 L184.72 145.03 z" style="fill:#F5B29C;" /><path d="M166.93 200.64 L154.08 238.65 L144.04 239.9 C144.04 239.9 147.07 235.61 151.41 236.49 L156.3 215.97 L160.59 195.53 C160.59 195.53 166.6 189.75 166.93 200.64 z" style="fill:#F5B29C;" /><path d="M184.03 200.16 C184.03 200.16 185.67 225.37 178.29 240.92 C178.29 240.92 168.72 237.86 169.61 237.31 C169.61 237.31 173.99 235.89 175.93 237.45 C175.93 237.45 180.7 219.23 177.98 206.99 C175.3 194.93 179.77 198.41 184.04 200.16 z" style="fill:#F5B29C;" /><path d="M147.32 237.17 C145.34 238.21 144.14 239.91 144.14 239.91 L154.18 238.66 L155 236.91 C151.57 238.89 147.99 237.47 147.31 237.17 z" style="fill:#2E3054;" /><path d="M179.07 239.39 C177.48 239.15 173.91 238.56 172.81 238.06 C171.76 237.59 172.56 236.89 173.13 236.72 C171.4 236.28 169.71 237.31 169.71 237.31 C168.82 237.86 178.39 240.92 178.39 240.92 C178.63 240.42 178.85 239.92 179.07 239.4 z" style="fill:#2E3054;" /><path d="M182.96 152.65 C185.03 147.48 190.55 139.67 187.16 134.07 C183.57 128.14 170.19 131.72 166.22 135.85 C165.9 136.18 165.61 136.54 165.35 136.91 C162.27 141.45 164.79 146.21 165.79 150.94 C166.95 156.44 164.51 164.89 162.22 169.77 C164.17 172.19 169.32 171.11 172.24 171.4 C174.22 171.6 176.47 171.74 178.57 171.61 C180.81 171.47 181.41 171.08 183.68 171.2 C185.11 171.27 181.55 164.18 181.35 163.48 C180.24 159.52 181.4 156.49 182.93 152.65 z" style="fill:#FA7071;" /><path d="M165.26 161.36 C165.26 161.36 156.46 179.86 155.82 181.36 C154.01 185.56 152.37 189.97 150.74 194.29 C149.03 198.83 147.79 204.12 150.02 208.71 C152.45 213.7 160.12 212.58 164.15 214.93 C168.45 217.44 176.34 218.03 180.5 214.74 C187.5 209.21 186.91 215.6 191.65 211.69 C196.39 207.78 190.76 196.41 188.75 187.28 C186.06 172.6 181.31 161.84 181.31 161.84 C181.31 161.84 171.86 165.08 165.24 161.36 z" style="fill:#4A4D78;" /><path d="M176.61 127.12 C174.24 131.33 167.7 127.55 167.41 124.32 C166.85 118.12 170.85 114.76 170.85 114.76 C173.55 110.85 175.01 110.47 178.25 111.28 C178.25 111.28 183.63 114.66 176.62 127.12 z" style="fill:#F5B29C;" /><path d="M163.56 161.72 C163.45 161.94 163.34 162.18 163.22 162.45 C164.03 162.77 169.15 164.75 174.08 164.73 C176.52 164.72 178.9 164.21 180.69 162.78 C180.58 162.49 180.47 162.23 180.38 162.01 C175.5 166.2 164.87 162.24 163.56 161.73 z" style="fill:#2E3054;" /><path d="M167.23 140.7 C165.87 146.31 162.02 156.62 162.02 156.62 L144.21 161.27 L143.39 164.69 C143.39 164.69 162.17 163.53 166.68 161.14 C171.19 158.75 176.87 139.22 174.27 135.19 C171.67 131.15 168.59 135.09 167.24 140.7 z" style="fill:#F5B29C;" /><path d="M147.33 164.12 C145.35 164.53 143.01 165.35 141.34 165.91 C139.94 166.38 138.08 167.32 136.71 167.23 C137.61 166.25 139.45 165.6 140.62 164.97 C139.27 165.39 135.86 166.24 135.58 165.72 C135.3 165.19 136.98 164.91 137.97 164.47 C138.66 164.17 139.55 163.92 140.29 163.66 C138.73 163.66 135.6 164.53 135.07 164.06 C134.54 163.59 138.11 163.01 139.91 162 C138.79 161.78 136.05 162.96 135.62 162.31 C135.19 161.65 140.46 160.84 142.3 160.84 C142.23 160.68 140.13 160.71 139.82 159.79 C139.49 158.87 144.16 159.95 145.04 160.53 C145.49 160.54 148.2 161.28 148.63 161.38 L147.35 164.12 z" style="fill:#F5B29C;" /><path d="M170.53 116.05 C170.53 116.05 171.99 117.46 174.6 116.27 C174.6 116.27 175.39 117.75 174.07 119.1 C174.07 119.1 175.81 118.14 175.86 120.29 C175.88 121.21 173.52 122.09 173.52 122.09 C173.52 122.09 168.4 129.98 167.8 134.63 C167.2 139.34 171.24 148.38 180.75 146.22 C180.75 146.22 185.39 145.15 186.23 140.21 C186.23 140.21 190.57 142.59 192.37 139.59 C199.49 127.71 188.78 119.47 188.78 119.47 C188.78 119.47 189.45 109.18 179.05 108.45 C172.19 107.97 168.07 113.45 170.53 116.05 z" style="fill:#0B1238;" /></g><g><path d="M220.75 204.07 C222.77 200.12 225.97 198.18 224.71 193.05 C224.2 191 222.66 189.72 221.95 187.91 C221.06 185.65 221.8 185.22 222.1 182.84 C222.74 177.71 219.51 176.65 217.65 172.74 C216.35 170.01 216.74 166.82 215 163.94 C213.24 161.01 209.96 158.4 209.3 154.92 C208.82 161.09 204.9 170.57 209.61 175.77 C206.77 177.67 206.24 181.42 207.56 184.36 C208.19 185.76 210.24 186.86 210.6 188.34 C211.1 190.36 209.85 190.43 209.68 192.2 C209.16 197.82 225.47 205.82 221.17 211.45 L220.75 204.08 z" style="fill:#97B8DA;" /><g><path d="M211.29 167.07 C209.8 166.52 208.65 165.82 207.59 165 C207.61 164.83 207.64 164.66 207.66 164.49 C208.77 165.39 209.83 166.03 211.2 166.56 C211.08 165.79 210.96 165.03 210.85 164.27 C210.75 163.6 210.65 162.93 210.54 162.26 C210.44 161.63 210.31 161 210.19 160.39 C210.08 159.87 209.97 159.33 209.89 158.81 C209.83 158.48 209.76 158.1 209.68 157.7 C209.52 156.88 209.34 156 209.26 155.2 C209.26 155.1 209.28 155 209.29 154.91 C209.42 155.61 209.67 156.28 209.98 156.93 C210.02 157.17 210.07 157.4 210.12 157.62 C210.2 158.02 210.28 158.4 210.34 158.74 C210.43 159.25 210.53 159.79 210.64 160.3 C210.77 160.92 210.9 161.56 211 162.19 C211.11 162.86 211.21 163.53 211.31 164.2 C211.56 165.87 211.82 167.59 212.15 169.3 C213.65 168.36 214.32 165.7 214.66 163.38 C214.78 163.56 214.9 163.74 215 163.92 C214.63 166.29 213.86 168.86 212.24 169.76 C212.28 169.95 212.31 170.14 212.35 170.32 C212.71 171.97 213.14 173.6 213.6 175.22 C215.05 173.53 216.13 171.49 216.69 169.47 C216.75 169.77 216.81 170.07 216.88 170.37 C216.23 172.28 215.15 174.17 213.75 175.74 C214.15 177.13 214.58 178.5 214.99 179.86 C215.02 179.95 215.03 179.99 215.04 180.03 C215.16 180.41 215.28 180.79 215.39 181.17 C215.73 180.66 216.14 180.18 216.55 179.73 C216.95 179.28 217.36 178.82 217.68 178.32 C218.39 177.25 218.73 176.17 219.04 175.02 C219.15 175.17 219.26 175.32 219.37 175.46 C219.08 176.49 218.72 177.54 218.05 178.56 C217.7 179.08 217.28 179.56 216.88 180.02 C216.43 180.53 215.97 181.05 215.62 181.62 L215.51 181.55 C216.04 183.28 216.57 185.05 217.04 186.82 C217.06 186.91 217.09 187.01 217.11 187.1 C217.45 186.45 218.08 185.79 218.66 185.19 C219.03 184.8 219.38 184.44 219.59 184.14 C220.52 182.83 221.45 181.36 221.98 179.88 C222.04 180.15 222.09 180.42 222.12 180.72 C221.56 182.01 220.75 183.26 219.95 184.4 C219.72 184.73 219.36 185.1 218.98 185.5 C218.27 186.23 217.4 187.14 217.3 187.85 C218.05 190.67 218.85 193.63 219.68 196.52 C220.31 198.69 220.61 200.95 220.9 203.13 C220.92 203.3 220.95 203.47 220.97 203.64 C220.89 203.78 220.81 203.93 220.74 204.07 L220.84 205.79 C220.7 204.92 220.58 204.04 220.47 203.18 C220.18 201.01 219.88 198.77 219.26 196.63 C218.42 193.73 217.62 190.75 216.87 187.92 C216.85 187.9 216.86 187.89 216.86 187.87 C216.78 187.55 216.69 187.24 216.61 186.92 C216.44 186.29 216.27 185.67 216.09 185.04 C215.27 184.74 214.26 184.61 213.28 184.49 C212.52 184.39 211.74 184.29 211.04 184.12 C209.32 183.68 208.13 182.91 206.92 182.07 C206.9 181.88 206.88 181.69 206.87 181.5 C208.15 182.39 209.37 183.24 211.15 183.69 C211.82 183.86 212.59 183.96 213.33 184.06 C214.22 184.18 215.13 184.29 215.93 184.54 C215.5 183.06 215.05 181.6 214.61 180.16 C214.21 179.91 213.63 179.8 213.06 179.7 C212.61 179.62 212.15 179.54 211.76 179.39 C210.76 179.01 209.11 178.39 208.02 177.29 C208.11 177.17 208.2 177.05 208.29 176.94 C209.16 177.84 210.52 178.45 211.91 178.98 C212.26 179.11 212.7 179.19 213.13 179.26 C213.57 179.34 214.03 179.42 214.42 179.56 C213.75 177.4 213.08 175.2 212.51 172.97 C212.35 172.97 212.19 172.97 212.01 172.95 C210.64 172.84 208.91 172.25 207.52 171.37 C207.48 171.17 207.45 170.98 207.43 170.77 C208.91 171.79 210.95 172.5 212.4 172.51 C212.22 171.81 212.05 171.11 211.9 170.4 C211.66 169.29 211.46 168.16 211.28 167.05 z" style="fill:white;" /><path d="M221.16 207.58 C221.1 207.27 221.04 206.95 220.98 206.63 C221.16 206.93 221.32 207.23 221.45 207.53 L221.16 207.59 z" style="fill:white;" /></g><path d="M192.19 178.86 C196.45 181.36 208.6 180.04 206.98 187.69 C212.59 186.92 214.33 189.13 213.98 194.45 C214.02 193.88 216.04 194.27 216.33 194.45 C216.81 194.74 217.4 195.67 217.68 196.16 C218.56 197.74 218.68 199.53 218.89 201.29 C219.15 203.39 219.6 205.47 220.15 207.49 C216.55 203.12 203.61 203.21 205.89 197.86 C203.88 198.11 200.2 198.79 198.59 197.16 C196.53 195.07 198.95 192.89 200.78 191.83 C192.98 190.84 193.8 187.45 194.85 183.62 L193.48 181.98 C192.86 181.05 192.39 179.92 192.18 178.86 z" style="fill:#2A2B7C;" /><path d="M240.52 187.48 C239.76 184.65 231.78 190.29 230.02 191.59 C230.28 190.31 230.51 189.05 230.7 187.82 C232.39 187.4 240.62 185.18 239.16 182.72 C237.75 180.34 232.19 185.99 230.74 187.52 C230.94 186.21 231.09 184.94 231.22 183.75 C232.37 183.42 238.79 181.44 237.95 178.98 C237.14 176.58 232.31 182.24 231.24 183.55 C231.41 181.9 231.52 180.41 231.59 179.17 C232.51 178.88 237.98 177.08 236.26 175.35 C234.64 173.72 232.23 177.8 231.6 178.93 C231.64 178.15 231.67 177.48 231.68 176.94 C232.3 175.38 233.92 170.92 232.08 170.95 C230.26 170.98 231 175.32 231.33 176.9 C231.31 177.62 231.27 178.56 231.2 179.7 C230.77 178.12 229.34 173.36 228.38 175.16 C227.36 177.04 230.44 179.53 231.18 180.08 C231.09 181.48 230.95 183.13 230.74 184.91 C230.22 183.61 227.52 177.16 225.64 179.08 C223.7 181.06 229.85 184.59 230.72 185.08 C230.54 186.57 230.32 188.14 230.03 189.76 C229.53 188.44 227.22 182.71 225.34 184.4 C223.39 186.15 229.06 189.44 229.99 189.96 C229.84 190.79 229.67 191.63 229.49 192.46 C228.52 191.07 225.08 186.44 223.77 188.49 C222.88 189.89 228.06 192.15 229.43 192.71 C229.1 194.15 228.72 195.58 228.28 196.98 C227.62 195.62 224.61 189.78 222.24 191.52 C220.4 192.87 226.99 196.51 228.22 197.16 C227.8 198.47 227.31 199.74 226.77 200.94 C226.16 199.48 223.88 194.35 222.01 195.59 C220.09 196.86 225.42 200.38 226.67 201.17 C226.1 202.4 225.45 203.54 224.73 204.58 C224.57 203.92 223.21 198.51 220.54 198.94 C217.87 199.37 223.8 204.02 224.66 204.69 C223.59 206.21 222.35 207.48 220.9 208.36 L221.08 208.66 C223.58 207.12 225.49 204.48 226.96 201.35 C227.27 201.47 235.32 204.61 235.87 201.55 C236.39 198.68 228.52 200.4 227.26 200.69 C227.58 199.97 227.87 199.22 228.14 198.45 C229.95 198.72 239.87 200.08 239.12 197.4 C238.38 194.77 230 197.64 228.2 198.28 C228.63 197.07 229 195.83 229.33 194.57 C230.7 194.67 239.88 195.23 238.86 192.59 C237.85 189.99 230.63 193.76 229.37 194.44 C229.51 193.91 229.64 193.38 229.76 192.85 L229.76 192.85 C229.84 192.51 229.91 192.17 229.98 191.84 C231.81 191.63 241.3 190.38 240.53 187.51 z" style="fill:#2E3054;" /><path d="M209.23 202.56 C209.23 215.16 213.74 225.38 219.31 225.38 C224.88 225.38 229.39 215.16 229.39 202.56 L209.22 202.56 z" style="fill:#E4EDF1;" /><path d="M209.23 202.56 C209.23 215.16 213.74 225.38 219.31 225.38 C224.88 225.38 229.39 215.16 229.39 202.56 L209.22 202.56 z" opacity="0.6" style="fill:#FA7071;" /><path d="M209.23 224.57 C209.23 225.35 213.74 225.97 219.31 225.97 C224.88 225.97 229.39 225.34 229.39 224.57 L209.22 224.57 z" style="fill:#B0BCD8;" /><path d="M211.2 206.32 C211.2 207.41 212.15 208.29 213.33 208.29 C214.51 208.29 215.45 207.41 215.45 206.32 C215.45 205.23 214.5 204.35 213.33 204.35 C212.16 204.35 211.2 205.23 211.2 206.32 z" opacity="0.3" style="fill:white;" /></g><path d="M197.04 62.99 C191.67 62.99 187.32 67.34 187.32 72.71 C187.32 78.08 197.04 90.33 197.04 90.33 C197.04 90.33 206.76 78.08 206.76 72.71 C206.76 67.34 202.41 62.99 197.04 62.99 z M197.04 76.26 C194.48 76.26 192.41 74.19 192.41 71.63 C192.41 69.07 194.48 67 197.04 67 C199.6 67 201.67 69.07 201.67 71.63 C201.67 74.19 199.6 76.26 197.04 76.26 z" style="fill:#FAA0A1;" /><path d="M57.49 10.06 C52.12 10.06 47.77 14.41 47.77 19.78 C47.77 25.15 57.49 37.4 57.49 37.4 C57.49 37.4 67.21 25.15 67.21 19.78 C67.21 14.41 62.86 10.06 57.49 10.06 z M57.49 23.33 C54.93 23.33 52.86 21.26 52.86 18.7 C52.86 16.14 54.93 14.07 57.49 14.07 C60.05 14.07 62.12 16.14 62.12 18.7 C62.12 21.26 60.05 23.33 57.49 23.33 z" style="fill:#BFD4F8;" /></g></svg>