<svg overflow="hidden" viewBox="0, 0, 256, 256" id="3d5b3c37-8ed2-4b55-9da8-92db8630463f" xmlns="http://www.w3.org/2000/svg" xmlns:xlink="http://www.w3.org/1999/xlink" xmlns:xml="http://www.w3.org/XML/1998/namespace" version="1.1"><defs /><g><g id="a"><g id="b"><g><path d="M243.05 117.54 C243.05 156.75 211.27 188.53 172.06 188.53 C132.85 188.53 101.07 156.75 101.07 117.54 C101.07 78.33 132.85 46.55 172.06 46.55 C211.27 46.55 243.05 78.34 243.05 117.54" style="fill:#CAE1FC;" /><path d="M40.03 172.47 C44.61 186.13 52.49 198.28 62.72 207.97 C67.77 212.76 73.39 216.95 79.48 220.42 C81.14 221.38 82.84 222.27 84.57 223.11 C96.06 228.7 108.96 231.83 122.59 231.83 C143.04 231.83 161.84 224.78 176.69 212.97 C187 204.78 195.42 194.31 201.16 182.31 C192.27 186.31 182.42 188.54 172.04 188.54 C158.17 188.54 145.22 184.56 134.29 177.68 C121.74 185.79 106.79 190.5 90.74 190.5 C71.51 190.5 53.85 183.74 40.03 172.47" style="fill:#C3DCFF;" /><path d="M157.07 64.81 C148.15 89.59 139.51 146.77 134.3 177.68 C145.24 184.56 158.18 188.54 172.05 188.54 C182.43 188.54 192.28 186.31 201.17 182.31 C206.61 170.95 209.66 158.22 209.66 144.78 C209.66 108.94 188.01 78.17 157.07 64.81" style="fill:#B8D6FE;" /><path d="M90.75 29.82 C46.38 29.82 10.41 65.79 10.41 110.16 C10.41 135.3 21.95 157.74 40.03 172.47 C37.11 163.77 35.53 154.46 35.53 144.77 C35.53 96.69 74.51 57.71 122.59 57.71 C126.07 57.71 129.51 57.91 132.89 58.31 C136.9 55.65 141.2 53.39 145.74 51.58 C131.37 38.08 112.03 29.81 90.75 29.81" style="fill:#F4E0EA;" /><path d="M145.74 51.59 C141.21 53.4 136.91 55.66 132.89 58.32 C139.33 67.35 149.79 67.35 157.07 64.81 C153.77 60 149.97 55.57 145.73 51.59" style="fill:#CFCBE7;" /><path d="M122.6 57.72 C74.52 57.72 35.54 96.7 35.54 144.78 C35.54 154.46 37.12 163.78 40.04 172.48 C53.87 183.75 71.52 190.51 90.75 190.51 C106.8 190.51 121.76 185.8 134.3 177.69 C134.3 156.01 132.89 99.38 132.89 58.33 C129.51 57.93 126.08 57.73 122.59 57.73" style="fill:#CAC7EA;" /><path d="M132.89 58.32 C113.71 71.03 101.06 92.81 101.06 117.54 C101.06 142.27 114.33 165.11 134.3 177.68 C156.44 163.37 171.09 138.48 171.09 110.16 C171.09 93.34 165.92 77.72 157.08 64.81 C149.51 61.54 141.39 59.32 132.9 58.32" style="fill:#C2C3E9;" /></g><g><circle cx="67.65" cy="78.2" r="19.26" style="fill:#FFAAAC;" /><g opacity="0.8"><path d="M60.35 74.46 C60.55 74.18 60.65 73.91 60.65 73.62 C60.65 73.33 60.54 73.1 60.33 72.9 C60.12 72.7 59.84 72.6 59.51 72.6 C58.93 72.6 58.45 72.9 58.07 73.49 L57.11 72.94 C57.42 72.48 57.76 72.13 58.13 71.89 C58.5 71.65 58.98 71.54 59.57 71.54 C60.16 71.54 60.68 71.73 61.12 72.1 C61.56 72.47 61.79 72.98 61.79 73.63 C61.79 73.99 61.7 74.34 61.51 74.67 C61.32 75 60.98 75.42 60.47 75.94 L58.82 77.62 L62.02 77.62 L62.02 78.76 L57.2 78.76 L57.2 77.75 L59.34 75.6 C59.82 75.12 60.16 74.74 60.36 74.46 z" style="fill:white;" /><path d="M65.95 75.91 L65.95 74.62 L67.08 74.62 L67.08 75.91 L67.93 75.91 L67.93 76.99 L67.08 76.99 L67.08 78.77 L65.95 78.77 L65.95 76.99 L62.92 76.99 L62.92 75.94 L65.51 71.71 L66.81 71.71 L64.26 75.91 L65.94 75.91 z" style="fill:white;" /><path d="M70.11 74.92 L71.12 74.92 L66.75 84.28 L65.74 84.28 L70.11 74.92 z" style="fill:white;" /><path d="M71.01 81.41 L71.01 79.38 L75.97 79.38 L75.97 80.44 L72.98 86.43 L71.67 86.43 L74.59 80.46 L72.09 80.46 L72.09 81.41 L71.01 81.41 z" style="fill:white;" /></g><g opacity="0.8"><path d="M66.89 93.37 C63.63 93.37 60.36 92.3 57.63 90.11 C54.55 87.63 52.61 84.1 52.18 80.17 C51.75 76.24 52.88 72.37 55.36 69.29 C59.21 64.5 65.71 62.57 71.55 64.5 C71.82 64.59 71.96 64.88 71.87 65.14 C71.78 65.41 71.5 65.55 71.23 65.46 C65.8 63.67 59.74 65.46 56.16 69.92 C53.85 72.79 52.8 76.39 53.2 80.05 C53.6 83.71 55.4 87 58.27 89.31 C64.2 94.07 72.9 93.12 77.66 87.19 C79.64 84.72 80.72 81.63 80.7 78.47 C80.7 78.19 80.92 77.96 81.21 77.96 C81.49 77.96 81.72 78.19 81.72 78.47 C81.74 81.86 80.58 85.19 78.46 87.83 C75.54 91.47 71.24 93.36 66.9 93.36 z" style="fill:white;" /></g><path d="M66.72 67.35 C66.52 67.35 66.33 67.23 66.25 67.03 C66.15 66.77 66.27 66.47 66.53 66.37 L70.61 64.74 L68.77 61.98 C68.61 61.75 68.68 61.43 68.91 61.27 C69.14 61.11 69.46 61.18 69.62 61.41 L71.81 64.69 C71.9 64.82 71.92 64.98 71.87 65.12 C71.82 65.27 71.71 65.39 71.57 65.44 L66.91 67.3 C66.85 67.32 66.78 67.34 66.72 67.34 z" style="fill:white;" /></g><g><path d="M96.1 141.49 C95.1 134.28 93.5 128.26 90.56 121.54 C88.83 117.58 85.58 106.07 80.89 105.33 C80.7 108.84 81.06 113.37 80.55 117.29 C76.48 109.51 71.47 102.7 66.38 101.35 C64.62 113.29 71.88 126.8 75.63 137.42 C73.9 134.41 70.58 131.87 67.15 131.63 C65.57 143.61 72.75 158.4 80.34 164.87 C79.09 164.67 77.65 165.14 76.46 164.99 C74.69 173.62 88.76 182.65 97.08 186.17 C96.74 184.28 96.41 182.39 96.1 180.49 C101.2 168.93 97.71 153.2 96.09 141.5 z" style="fill:#6B96CF;" /><path d="M74.91 190.2 C64.91 187.14 52.02 183.47 46.55 172.87 C42.41 164.85 45.7 154.43 53.45 149.7 C49.51 142.38 44.21 122.07 56.86 118.69 C68.89 115.48 69.09 136.25 69.27 143.57 C74.67 132.05 80.97 139.2 76.19 148.52 C84.1 143.95 83.37 156.37 83.15 161.23 C82.48 175.77 81.16 188.83 83.08 203.21 L74.91 190.19 z" style="fill:#FFAAAC;" /><path d="M92.02 209.02 C77.23 209.46 60.1 211.21 48.26 200.72 C42.17 195.32 42.98 191.05 51.28 190.86 C46.34 187.25 40.45 184.34 34.76 182 C24.42 177.74 19.9 169.73 34.96 170.73 C32.76 165.05 27.69 159.98 25.3 153.6 C22.82 146.97 22.13 141.66 23.09 134.72 C37.08 133.85 41.24 158.44 47.05 167.56 C47.51 154.61 57.78 143.38 60.82 161.37 C62.37 170.54 61.69 180.79 64.97 189.29 C65.7 183.59 67.42 168.99 75.69 170.95 C79.34 171.82 79.84 175.53 80.53 178.94 C82.37 188.12 82.52 200.01 89.87 206.34 L92.01 209.03 z" style="fill:#979FFF;" /><path d="M81.2 209.37 C80.26 208.98 79.31 208.59 78.37 208.19 C75.98 204.64 74.2 201.13 72.79 197.04 C71.39 192.99 70.89 188.65 70.62 184.39 C70.36 180.32 70.43 176.11 70.81 172.04 C70.54 172.26 70.28 172.51 70.03 172.79 C69.59 176.84 69.56 180.96 69.82 185.16 C70 188.06 70.38 190.96 71.03 193.79 C70.65 193.28 70.24 192.78 69.9 192.28 C68.99 190.97 68.34 189.7 67.81 188.2 C67.13 186.26 66.52 184.41 66.04 182.51 C65.9 183.17 65.78 183.82 65.67 184.45 C65.99 185.52 66.36 186.59 66.78 187.66 C67.29 188.95 67.63 190.18 68.38 191.36 C69.3 192.81 70.6 194.11 71.42 195.61 C71.45 195.66 71.49 195.7 71.53 195.72 C71.74 196.48 71.97 197.23 72.23 197.98 C73.47 201.55 75.04 204.68 77.19 207.68 C76.43 207.34 75.68 207.01 74.93 206.66 C74.6 206.5 74.28 206.32 73.96 206.15 C73.93 206.11 73.88 206.08 73.82 206.06 C73.79 206.06 73.77 206.04 73.74 206.04 C70.03 203.97 66.8 200.69 63.77 197.81 C62.54 196.64 61.23 195.58 60.02 194.39 C59.59 192.93 58.8 191.52 58.4 190.04 C57.77 187.73 57.22 185.38 56.68 183.05 C56.62 182.78 56.57 182.5 56.5 182.23 C56.56 182.23 56.62 182.2 56.67 182.15 C58.77 180.29 60.67 178.08 62.25 175.67 C62.21 175.21 62.17 174.74 62.13 174.28 C61.92 174.66 61.71 175.03 61.49 175.4 C60.12 177.68 58.13 179.61 56.36 181.58 C55.46 177.41 54.82 173.23 54.49 168.97 C54.46 168.54 54.43 168.12 54.4 167.7 C55.31 166.8 55.83 165.49 56.65 164.49 C57.51 163.44 58.26 162.48 58.98 161.32 C59.42 160.6 59.89 159.88 60.36 159.16 C60.27 158.8 60.19 158.45 60.1 158.12 C59.66 158.84 59.22 159.56 58.76 160.27 C57.92 161.57 57.16 162.83 56.13 163.98 C55.39 164.8 54.96 165.89 54.34 166.8 C54.07 162.8 53.99 158.85 54.57 154.85 C54.71 153.91 54.88 152.98 55.06 152.05 C54.8 152.07 54.55 152.12 54.29 152.2 C54.13 153.02 53.98 153.83 53.84 154.66 C53.11 159.18 53.37 163.65 53.68 168.19 C53.81 170.09 54.01 171.97 54.26 173.84 C52.83 171.62 51.41 169.39 50.21 167.04 C49.21 165.08 48.6 163.05 48.14 160.97 C47.96 161.57 47.79 162.19 47.65 162.83 C47.97 163.95 48.36 165.06 48.83 166.12 C49.68 168.04 50.76 169.79 51.83 171.59 C52.62 172.91 53.39 174.31 54.47 175.41 C54.78 177.5 55.15 179.59 55.6 181.67 C56.1 184.01 56.69 186.34 57.3 188.66 C57.7 190.2 58.27 191.63 58.82 193.08 C57.6 191.63 56.55 190.01 55.36 188.55 C52.26 184.72 49.36 180.46 47.24 176.01 C45.48 172.32 43.72 168.66 41.83 165.04 C41.85 164.98 41.86 164.92 41.84 164.85 C41.08 162.21 41.37 159.27 42.03 156.45 C41.86 156.01 41.68 155.57 41.5 155.12 C41.26 156.03 41.07 156.95 40.97 157.89 C40.82 159.3 40.53 161.19 40.67 162.88 C39.83 161.39 38.95 159.91 38.14 158.4 C37.64 157.46 37.19 156.5 36.73 155.55 C36.25 154.55 35.77 153.59 35.2 152.66 C34.6 151.67 34.03 150.65 33.48 149.64 C33.2 148.49 33.3 147.09 33.21 146.04 C33.04 144.17 32.86 142.3 32.78 140.42 C32.76 139.97 32.76 139.53 32.78 139.08 C32.54 138.81 32.28 138.56 32.03 138.32 C31.97 139.3 31.96 140.27 32 141.23 C32.1 143.35 32.39 145.46 32.56 147.57 C32.56 147.69 32.58 147.82 32.59 147.95 C31.31 145.51 30.04 143.06 28.46 140.77 C27.21 138.95 25.99 137.02 24.57 135.33 C24.41 135.14 24.25 134.94 24.09 134.73 C23.85 134.73 23.6 134.73 23.35 134.73 C23.96 135.54 24.52 136.36 25 137.03 C26.42 138.99 27.8 140.98 29.12 143.01 C30.39 144.96 31.36 147.04 32.36 149.13 C33.25 150.99 34.41 152.68 35.42 154.47 C33.84 153.34 32.23 152.62 30.21 152.03 C28.04 151.39 26.03 150.56 24.03 149.67 C24.15 150.08 24.26 150.49 24.39 150.91 C25.45 151.42 26.53 151.88 27.67 152.23 C29.21 152.7 30.76 153.1 32.29 153.62 C33.78 154.12 34.85 155.17 36.19 155.9 C38.11 159.47 39.93 163.09 41.88 166.64 C42.52 167.8 43.1 168.98 43.68 170.17 C43.12 169.75 42.52 169.37 42.02 168.99 C40.39 167.74 38.74 166.63 36.95 165.62 C35.01 164.53 32.89 163.91 30.77 163.27 C31.04 163.67 31.31 164.08 31.57 164.48 C32.6 164.76 33.64 165.05 34.64 165.41 C36.67 166.15 38.61 167.44 40.35 168.71 C41.67 169.68 43.27 170.61 44.45 171.77 C45.64 174.3 46.81 176.85 48.23 179.28 C49.24 181.02 50.31 182.68 51.42 184.32 C49.33 182.98 47.09 181.86 45.09 180.39 C43.96 179.56 42.57 179.37 41.31 178.77 C39.9 178.09 38.57 177.37 37.06 176.92 C34.29 176.09 31.72 175 28.78 174.92 C27.68 174.89 26.55 174.78 25.42 174.62 C25.51 174.93 25.65 175.26 25.84 175.59 C26.11 175.63 26.39 175.67 26.65 175.7 C28.16 175.87 29.68 175.75 31.17 176.08 C32.88 176.47 34.49 176.98 36.14 177.55 C41.91 179.55 47.31 182.5 52.45 185.81 C53.53 187.34 54.65 188.84 55.84 190.33 C57.08 191.88 58.15 193.46 59.5 194.9 C59.53 194.98 59.55 195.05 59.58 195.12 C59.64 195.29 59.78 195.35 59.91 195.34 C59.94 195.37 59.96 195.4 59.99 195.43 C61.56 196.98 63.29 198.38 64.89 199.9 C66.56 201.49 68.31 203.08 70.18 204.5 C68.75 203.71 67.35 202.81 65.95 202.11 C63.39 200.81 60.75 199.7 58.08 198.66 C55.16 197.52 52.13 196.81 49.14 195.9 C47.53 195.41 45.93 194.85 44.33 194.33 C44.3 194.62 44.31 194.92 44.37 195.24 C45.89 195.74 47.41 196.23 48.93 196.71 C51.92 197.65 54.93 198.36 57.87 199.47 C60.96 200.64 63.97 202.01 66.91 203.53 C68.92 204.57 70.99 206.15 73.26 206.57 C73.89 206.94 74.53 207.29 75.19 207.6 C76.54 208.23 77.91 208.83 79.29 209.42 C79.93 209.42 80.57 209.41 81.22 209.39 z" opacity="0.8" style="fill:#B4D3FF;" /></g><g><path d="M154.31 171.66 C153.18 162.14 155.45 150.04 158.67 140.5 C160.84 134.05 167.58 117.46 176.12 117 C185.69 116.48 184.56 135.57 182.69 141.8 C179.95 150.93 174.53 158.09 168.5 165.43 C162.79 172.39 158.15 180.37 152.52 187.01 L154.31 171.67 z" style="fill:#649DF6;" /><path d="M203.31 133.66 C205.88 130.05 210.63 129.88 212.9 134.39 C215.1 138.77 212.41 140.91 210.51 143.96 C204.66 153.31 199.29 161.02 190.72 167.79 C182.52 174.25 172.63 178.03 165.05 185.72 C170.22 176.91 167.41 165.66 167.6 155.65 C167.69 151.14 168.26 145.69 169.89 141.62 C170.81 139.32 175.83 133.11 176.82 139.67 C175.45 130.6 181.13 119.59 184.86 133.81 C184.05 127.89 195.43 110.54 202.18 112.41 C211.66 115.03 204.87 128.67 203.31 133.67 z" style="fill:white;" /><path d="M163.9 211.84 C164.72 202.83 165.1 193.72 167.51 185.18 C170.13 175.91 177.09 168.36 182.1 160.36 C188 150.94 192.48 159.52 192.66 168.03 C193.64 159.51 203.18 143.29 209.66 138.24 C218.45 131.4 215.83 144.97 214.41 150.8 C217.94 141.02 236.69 133.96 245.59 139.3 C237.2 145.51 232.52 152.83 229.51 163.03 C226.47 173.35 222.05 176.45 212.01 177.95 C215.12 185.98 201.47 196.65 196.3 200.63 C190.47 205.12 162.32 215.53 163.4 222.77 L163.9 211.83 z" style="fill:#FFAAAC;" /><path d="M229.1 153.01 C226.33 153.7 223.88 155.33 221.27 156.45 C220.88 156.62 220.45 156.82 220 157.06 C222.31 154.64 224.67 152.3 227.21 150.06 C230.95 146.76 234.34 143.16 238.89 140.94 C240.78 140.01 242.7 139.36 244.69 138.83 C244.26 138.62 243.8 138.45 243.33 138.29 C242.42 138.56 241.52 138.87 240.65 139.2 C236.54 140.77 233.11 143.51 229.9 146.44 C226.36 149.67 222.7 152.8 219.46 156.34 C218.06 157.87 216.67 159.41 215.26 160.95 C216.66 155.7 218.6 150.44 220.9 145.54 C221.49 144.28 222.13 143.05 222.81 141.85 C222.34 142.13 221.87 142.42 221.43 142.72 C220.9 143.74 220.39 144.77 219.91 145.8 C218.66 148.47 217.6 151.22 216.67 154.01 C215.83 156.51 214.65 159.34 214.32 161.97 C212.72 163.7 211.1 165.42 209.42 167.07 C207.45 169 205.58 171.01 203.7 173.01 C203.92 171.95 204.05 170.83 204.22 169.83 C204.63 167.48 205.13 165.15 205.72 162.84 C206.88 158.31 208.44 153.75 210.34 149.47 C212.01 145.71 213.69 141.9 215.59 138.24 C215.48 137.86 215.34 137.53 215.17 137.26 C213.04 141 211.41 145.15 209.62 149.06 C207.75 153.16 206.36 157.53 205.14 161.87 C204.01 165.88 203.61 170.02 202.72 174.07 C201.79 175.06 200.86 176.04 199.92 177.01 C199.7 177.24 199.46 177.46 199.23 177.68 C198.79 178 198.42 178.35 198.19 178.71 C197.35 179.51 196.5 180.3 195.63 181.06 C196.32 173.89 196.6 166.64 198.38 159.63 C199.69 154.47 201.6 149.57 203.73 144.74 C202.78 146.02 201.84 147.39 200.93 148.83 C199.39 152.81 198.15 156.93 197.18 160.98 C195.54 167.8 195.67 174.98 194.79 181.79 C192.72 183.56 190.59 185.24 188.4 186.92 C187.92 187.29 183.3 190.94 181.67 192.25 C181.86 191.51 181.75 190.73 181.73 189.93 C181.66 187.78 181.98 185.58 182.21 183.44 C182.7 178.95 183.05 174.4 184.19 170.01 C185.38 165.44 186.94 161.08 188.82 156.85 C188.58 156.68 188.32 156.54 188.06 156.44 C186.47 159.98 185.14 163.63 184.06 167.43 C182.93 171.41 182.34 175.31 181.84 179.41 C181.58 181.56 181.36 183.71 181.16 185.86 C181.06 186.94 181 188.02 180.97 189.1 C180.94 190.26 181.27 191.63 180.8 192.73 C180.77 192.81 180.77 192.88 180.78 192.94 C180.66 193.03 177.32 195.68 176.06 196.63 L175.94 196.72 C175.79 195.59 175.56 194.5 175.44 193.35 C175.26 191.49 175.33 189.6 175.29 187.73 C175.2 184.28 174.89 180.85 174.88 177.39 C174.88 174.94 175.03 172.55 175.33 170.2 C174.97 170.72 174.61 171.25 174.25 171.78 C174.13 173.17 174.06 174.56 174.03 175.93 C173.94 179.6 174.16 183.27 174.41 186.93 C174.65 190.44 174.53 193.76 175.33 197.18 C173.72 198.4 172.11 199.62 170.47 200.81 C169.49 201.52 168.42 202.11 167.37 202.72 C166.77 203.07 165.95 204.24 165.13 203.82 C164.8 203.65 164.51 204.15 164.84 204.33 C165.65 204.77 166.32 204.29 167.02 203.8 C168.85 202.52 170.78 201.41 172.59 200.09 C173.64 199.32 174.68 198.55 175.72 197.78 C175.79 197.87 182.34 196.7 186.04 197.87 C189.27 198.9 192.66 199.38 195.98 200.1 C196.25 200.16 196.53 200.21 196.81 200.26 C197.12 200.02 197.45 199.76 197.8 199.49 C195.52 199.15 193.23 198.56 191.15 198.17 C186.62 197.31 181.5 195.46 176.92 196.88 C178.29 195.85 179.66 194.8 181.01 193.74 C181.71 193.51 182.34 193.13 183.13 192.98 C184.79 192.66 186.42 192.6 188.1 192.53 C191.43 192.38 194.75 192.71 198.04 193.3 C200.06 193.66 202.09 193.97 204.13 194.07 C204.39 193.83 204.64 193.58 204.89 193.33 C201.88 193.31 198.92 192.57 195.95 192.17 C193.06 191.78 190.25 191.66 187.34 191.8 C186.08 191.86 184.89 191.92 183.65 192.13 C183.32 192.19 183 192.29 182.68 192.41 C183.1 192.07 183.52 191.75 183.93 191.41 C185.09 190.46 186.26 189.53 187.45 188.61 C188.42 188.43 189.22 187.9 190.21 187.59 C191.82 187.08 193.39 186.52 195.02 186.09 C198.92 185.06 202.84 185.32 206.83 185.16 C208.33 185.1 209.84 184.99 211.34 184.87 C211.47 184.59 211.59 184.3 211.7 184.02 C209.28 184.21 206.84 184.35 204.42 184.4 C201.1 184.46 198.03 184.46 194.81 185.3 C193.42 185.66 192.07 186.13 190.71 186.58 C190.25 186.74 189.78 186.95 189.31 187.16 C191.5 185.48 193.7 183.81 195.83 182.06 C196.68 181.36 197.48 180.62 198.27 179.86 C198.35 179.84 198.41 179.78 198.44 179.7 C198.97 179.18 199.49 178.65 200 178.11 C200.69 177.7 201.44 177.35 201.79 177.15 C203.43 176.24 205.16 175.76 206.94 175.23 C208.87 174.66 210.53 174.1 212.58 173.99 C214.48 173.89 216.37 173.66 218.26 173.45 C220.39 173.22 222.5 173.07 224.57 172.7 C224.86 172.4 225.14 172.08 225.4 171.75 C221.58 172.75 217.27 172.83 213.39 173.16 C209.98 173.45 206.44 174.18 203.29 175.6 C202.94 175.76 202.34 176.01 201.67 176.32 C203.09 174.76 204.48 173.18 205.93 171.66 C205.94 171.66 205.96 171.66 205.97 171.65 C207.43 170.88 208.56 169.84 210.14 169.23 C211.97 168.53 213.79 167.69 215.69 167.22 C219.58 166.27 223.53 165.29 227.27 163.83 C228.04 163.53 228.8 163.21 229.56 162.87 C229.66 162.52 229.77 162.18 229.88 161.84 C228.03 162.72 226.11 163.46 224.18 164.1 C220.86 165.19 217.4 165.82 214.09 166.9 C212.48 167.43 210.92 168.16 209.35 168.78 C208.89 168.96 208.48 169.19 208.1 169.45 C210.93 166.59 213.79 163.77 216.52 160.8 C216.6 160.78 216.67 160.74 216.73 160.65 C216.84 160.48 216.97 160.33 217.1 160.18 C217.29 159.98 217.47 159.78 217.66 159.58 C219.25 158.08 221.67 157.12 223.52 156.36 C225.03 155.74 226.37 154.81 227.89 154.2 C229.25 153.65 230.8 153.42 232.21 153.04 C232.74 152.9 233.27 152.74 233.79 152.58 C234 152.19 234.23 151.81 234.45 151.43 C232.73 152.04 230.95 152.58 229.1 153.05 z" opacity="0.4" style="fill:white;" /></g><g><path d="M148.52 104.93 C151.98 108.57 153.97 112.45 153.75 117.61 C153.63 120.42 153.2 122.31 151.91 124.63 C150.79 126.65 148.32 128.64 147.71 130.66 C151.12 131.01 154.01 131.17 156.74 133.69 C165.41 141.69 165.1 159.7 152.22 163.92 C150.08 164.62 147.16 164.9 145.25 164.04 C149.64 161.71 154.75 169.9 151.01 173.9 C146.61 178.6 136.25 178.36 130.28 178.38 C123.43 178.41 113.07 179.13 107.68 174.43 C103.57 170.83 101.62 163.55 100.9 158.54 C99.02 162.4 97.03 167.26 92.57 168.52 C88.24 169.75 83.21 167.09 80.96 163.43 C78.72 159.8 79.89 154.99 82.4 151.95 C83.62 150.48 90.8 142.65 92.68 143.45 C84.26 139.83 84.62 130.67 86.73 122.22 C93.03 96.96 129.76 85.78 148.18 104.55 C148.3 104.67 148.4 104.78 148.52 104.9 z" style="fill:#2E3054;" /><path d="M114.3 117.81 C111.75 120.16 113.05 136.47 112.1 140.47 C109.98 149.42 104.57 152.48 97.75 158.06 C93.3 161.71 107.59 190.21 115.56 192.23 C119.07 193.12 121.83 195.03 125.7 195.58 C129.73 196.15 134.03 195.84 137.93 195.58 C144.95 195.11 155.58 167.4 151.13 163.72 C140.89 155.27 132.06 146.49 133.43 132.37 C134.47 121.64 120.51 112.09 114.29 117.82 z" style="fill:#ECB49F;" /><path d="M111.9 131.26 L112.68 121.88 C118.9 116.15 134.68 119.58 133.64 130.31 C133.63 130.39 133.57 132.2 133.56 132.27 C132.49 136.96 128.88 142.27 123.02 142.61 C116.11 143 113.86 137.59 111.9 131.27 z" style="fill:#ECB49F;" /><path d="M142.45 105.34 C142.45 105.34 138.13 138.54 123.91 138.72 C111.16 138.88 107.82 120.03 107.37 106.94 C106.86 92.28 108.39 87.9 126.22 87.79 C143.4 87.69 142.45 105.33 142.45 105.33 z" style="fill:#ECB49F;" /><path d="M104.09 99.11 C104.2 100.15 104.42 101.28 104.61 102.45 C100.61 102.2 100.75 106.96 103.41 108.64 C104.55 109.36 106.31 109.53 107.71 109.67 C109.12 109.81 110.97 109.84 112.17 109.12 C113.45 108.36 114.58 106.93 115.64 105.88 C116.92 104.61 118.46 103.24 118.72 101.34 C121.94 107.69 129.49 109.04 135.94 107.87 C136.69 111.65 135.92 113.65 139.53 116 C143.02 118.26 143.72 116.44 146.74 114.58 C147.55 111.59 145.41 108.21 143.74 106.82 C148.28 102.78 144.86 96.01 140.9 91.4 C136.03 85.74 130 83.31 122.79 83.51 C119.46 83.61 114.84 85.02 112.35 87.28 C110.41 89.04 108.36 90.09 107.96 94.2 C104.3 94.49 103.81 96.47 104.07 99.09 z" style="fill:#2E3054;" /><path d="M158.64 213.13 L162.88 221.94 C167.78 219.38 172.41 216.38 176.7 212.97 C176.19 190.03 165.74 166.66 161.65 163.63 C157.56 160.6 143.05 157.21 143.05 157.21 C143.05 157.21 123.24 171.97 101.49 154.76 C101.49 154.76 92.52 158.46 85.5 162.2 C83.83 162.51 81.97 163.35 80.06 164.64 C78.11 165.96 69.38 188.98 62.72 207.96 C67.77 212.75 73.39 216.94 79.48 220.41 C80.52 217.78 81.64 214.85 82.79 211.77 C83.36 215.57 83.95 219.37 84.57 223.1 C96.06 228.69 108.96 231.82 122.59 231.82 C135.35 231.82 147.48 229.07 158.4 224.13 L158.64 213.12 z" style="fill:#2A2B7C;" /><path d="M140.8 153.69 L143.94 157.23 C143.94 157.23 137.67 164.22 123.2 163.98 C108.72 163.75 101.49 154.75 101.49 154.75 L105.58 152.02 C105.58 152.02 126.14 166.48 140.8 153.68 z" style="fill:white;" /><path d="M108.66 124.75 C104.12 124.91 102.28 121.84 102.12 117.31 C101.96 112.77 103.54 108.49 108.08 108.33 L108.66 124.76 z" style="fill:#5B74BB;" /><path d="M140.43 109.55 L138.49 125.87 C139.74 126.02 140.79 125.8 141.68 125.33 C141.16 125.87 140.59 126.33 139.95 126.72 C136.59 128.75 132.47 128.03 130.95 127.66 C130.6 126.87 129.43 126.43 128.14 126.66 C126.7 126.91 125.67 127.89 125.84 128.85 C126.01 129.81 127.31 130.38 128.75 130.13 C129.89 129.93 130.76 129.28 130.99 128.54 C131.79 128.73 133.05 128.95 134.53 128.95 C136.34 128.95 138.46 128.61 140.38 127.45 C143.13 125.79 144.86 122.82 145.54 118.62 C145.55 118.53 145.54 118.44 145.49 118.37 C145.52 118.19 145.54 118.01 145.57 117.83 C146.11 113.32 144.93 110.09 140.42 109.56 z" style="fill:#5B74BB;" /><path d="M140.81 109.22 C140.39 103.69 138.1 90.93 125.84 89.97 C113.27 88.98 108.92 102.79 107.73 107.97 C107.32 108.08 107.02 108.45 107.04 108.89 L107.58 124.26 C107.6 124.78 108.03 125.18 108.55 125.16 C109.07 125.14 109.47 124.71 109.46 124.19 L108.92 108.82 C108.9 108.3 108.47 107.9 107.95 107.91 C107.88 107.91 107.82 107.94 107.76 107.96 C108.86 103.72 112.71 93.94 124.76 94.27 C137.33 94.61 140.12 104.43 140.73 109.19 C140.68 109.18 140.64 109.15 140.6 109.15 C140.08 109.09 139.62 109.46 139.56 109.97 L137.75 125.24 C137.69 125.76 138.06 126.22 138.57 126.28 C139.08 126.34 139.55 125.97 139.61 125.46 L141.42 110.19 C141.47 109.75 141.21 109.37 140.82 109.22 z" style="fill:white;" /></g><g><path d="M189.99 66.15 C190.37 63.65 191.52 60.61 187.97 59.83 C182.19 58.56 176.07 59.03 170.18 59.03 C163.95 59.03 152.94 56.93 148.19 62.07 C146.86 63.51 147.47 65.08 147.45 66.96 C147.37 72.45 146.99 77.94 147.63 83.42 C147.91 85.8 148.23 90.28 150.61 91.69 C152.61 92.87 157 92.04 159.26 92.04 L166.74 92.04 C166.2 94.06 165.88 96.25 164.77 98.02 C166.43 96.01 169.86 94.68 171.01 92.04 L186.01 92.04 C188.23 92.04 189.37 90.39 189.92 88.11 C190.93 83.91 189.94 77.53 189.94 75.21 C189.94 72.29 189.54 69.04 189.98 66.15 z" style="fill:#FA7B8D;" /><g><path d="M182.03 71.49 C182.03 71.82 181.76 72.09 181.43 72.09 L156.44 72.09 C156.11 72.09 155.84 71.82 155.84 71.49 C155.84 71.16 156.11 70.89 156.44 70.89 L181.43 70.89 C181.76 70.89 182.03 71.16 182.03 71.49 L182.03 71.49 z" style="fill:#FFD7DF;" /><path d="M182.03 75.7 C182.03 76.03 181.76 76.3 181.43 76.3 L156.44 76.3 C156.11 76.3 155.84 76.03 155.84 75.7 C155.84 75.37 156.11 75.1 156.44 75.1 L181.43 75.1 C181.76 75.1 182.03 75.37 182.03 75.7 L182.03 75.7 z" style="fill:#FFD7DF;" /><path d="M182.03 79.92 C182.03 80.25 181.76 80.52 181.43 80.52 L156.44 80.52 C156.11 80.52 155.84 80.25 155.84 79.92 C155.84 79.59 156.11 79.32 156.44 79.32 L181.43 79.32 C181.76 79.32 182.03 79.59 182.03 79.92 L182.03 79.92 z" style="fill:#FFD7DF;" /></g></g><g opacity="0.6"><g><circle cx="151.09" cy="38.89" r="14.72" style="fill:#BFD4F8;" /><path d="M149.32 42.78 L146.9 42.78 L146.9 41.45 C146.9 40.87 146.97 40.44 147.1 40.15 C147.23 39.87 147.53 39.49 147.99 39.03 L149.55 37.44 C149.88 37.08 150.04 36.63 150.04 36.09 C150.04 35.55 149.87 35.1 149.53 34.75 C149.19 34.39 148.75 34.21 148.21 34.21 C147.67 34.21 147.22 34.38 146.85 34.72 C146.49 35.06 146.28 35.52 146.22 36.08 L143.63 36.08 C143.77 34.79 144.27 33.77 145.12 33.04 C145.97 32.3 147.03 31.94 148.29 31.94 C149.55 31.94 150.59 32.29 151.39 33 C152.19 33.71 152.59 34.69 152.59 35.96 C152.59 36.83 152.35 37.56 151.89 38.14 C151.62 38.49 151.41 38.74 151.27 38.88 C151.13 39.03 150.94 39.21 150.71 39.44 C150.47 39.67 150.28 39.86 150.11 40.03 C149.95 40.2 149.81 40.34 149.71 40.46 C149.46 40.78 149.33 41.23 149.33 41.81 L149.33 42.79 z M148.16 47.63 C147.71 47.63 147.32 47.47 147 47.16 C146.67 46.85 146.51 46.47 146.51 46.03 C146.51 45.59 146.67 45.2 146.99 44.88 C147.31 44.56 147.7 44.4 148.14 44.4 C148.58 44.4 148.98 44.56 149.3 44.87 C149.63 45.18 149.79 45.56 149.79 46.01 C149.79 46.46 149.63 46.84 149.31 47.16 C148.99 47.48 148.6 47.64 148.16 47.64 z" style="fill:white;" /><path d="M156.9 47.69 C156.46 47.69 156.09 47.53 155.78 47.21 C155.47 46.89 155.31 46.51 155.31 46.06 C155.31 45.61 155.47 45.23 155.78 44.91 C156.09 44.59 156.47 44.43 156.9 44.43 C157.33 44.43 157.71 44.59 158.02 44.91 C158.33 45.23 158.49 45.61 158.49 46.06 C158.49 46.51 158.33 46.89 158.02 47.21 C157.71 47.53 157.33 47.69 156.9 47.69 z M155.39 31.89 L158.38 31.89 L158.38 34.71 L157.74 42.59 L156.03 42.59 L155.39 34.71 L155.39 31.89 z" style="fill:white;" /></g></g><g><rect x="203.92" y="87.88" width="17.67" height="11.2" transform="matrix(0.899176, -0.437587, 0.437587, 0.899176, -19.46, 102.51)" style="fill:white;" /><path d="M223.31 94.58 L218.41 84.51 C218.37 84.42 218.26 84.39 218.17 84.43 L217.75 84.64 L217.75 84.64 L202.71 91.96 L202.71 91.96 L202.29 92.17 C202.2 92.21 202.16 92.32 202.21 92.41 L207.11 102.48 C207.15 102.57 207.26 102.6 207.35 102.56 L207.77 102.36 L207.77 102.36 L222.81 95.04 L222.81 95.04 L223.23 94.83 C223.32 94.79 223.35 94.68 223.31 94.59 z M221.21 95.4 L208.05 101.8 L211.33 94.43 L213.35 94.94 C213.35 94.94 213.43 94.94 213.47 94.93 C213.51 94.91 213.54 94.88 213.55 94.84 L214.39 92.94 L222.21 94.91 L221.21 95.4 z M211.47 94.11 L212.23 92.4 L214.04 92.86 L213.28 94.57 L211.47 94.11 z M214.19 92.53 L212.17 92.02 C212.09 92 212 92.04 211.97 92.12 L211.12 94.02 L203.3 92.05 L216.06 85.84 L217.47 85.16 L214.19 92.53 z M202.6 92.39 L202.8 92.29 L210.97 94.35 L207.55 102.05 L207.34 102.15 L202.6 92.4 z M222.71 94.67 L214.54 92.61 L217.96 84.91 L218.17 84.81 L222.91 94.56 L222.7 94.66 z" style="fill:#BFD4F8;" /><path d="M210.66 93.9 L213.29 94.56 L214.25 92.4 L217.47 85.16 C217.47 85.16 203.33 92 203.31 92.05 C203.29 92.1 210.66 93.9 210.66 93.9 z" style="fill:white;" /></g><g><path d="M131.89 45.79 C132.21 43.67 133.19 41.08 130.17 40.41 C125.25 39.33 120.04 39.73 115.03 39.73 C109.72 39.73 100.36 37.94 96.32 42.31 C95.19 43.53 95.71 44.87 95.69 46.48 C95.62 51.16 95.29 55.82 95.85 60.49 C96.09 62.52 96.36 66.33 98.39 67.53 C100.09 68.54 103.82 67.83 105.75 67.83 L110.98 67.83 C111.86 71.56 116.47 73.18 118.6 75.75 C117.13 73.41 116.84 70.42 116.02 67.83 L128.52 67.83 C130.41 67.83 131.38 66.43 131.85 64.48 C132.71 60.9 131.87 55.48 131.87 53.5 C131.87 51.01 131.53 48.25 131.91 45.79 z" style="fill:#7AB6F6;" /><path d="M106.71 54.9 C106.71 55.93 105.87 56.76 104.84 56.76 C103.81 56.76 102.98 55.92 102.98 54.9 C102.98 53.88 103.81 53.03 104.84 53.03 C105.87 53.03 106.71 53.87 106.71 54.9 z" style="fill:white;" /><path d="M115.7 54.9 C115.7 55.93 114.86 56.76 113.83 56.76 C112.8 56.76 111.97 55.92 111.97 54.9 C111.97 53.88 112.8 53.03 113.83 53.03 C114.86 53.03 115.7 53.87 115.7 54.9 z" style="fill:white;" /><path d="M124.68 54.9 C124.68 55.93 123.84 56.76 122.81 56.76 C121.78 56.76 120.95 55.92 120.95 54.9 C120.95 53.88 121.78 53.03 122.81 53.03 C123.84 53.03 124.68 53.87 124.68 54.9 z" style="fill:white;" /></g></g></g></g></svg>