<svg overflow="hidden" viewBox="0, 0, 256, 256" id="38f728f9-3f76-4d99-81da-670cc72aaf86" xmlns="http://www.w3.org/2000/svg" xmlns:xlink="http://www.w3.org/1999/xlink" xmlns:xml="http://www.w3.org/XML/1998/namespace" version="1.1"><defs /><g><g id="a"><g id="b"><g><path d="M115.39 154.95 C115.39 183.99 91.84 207.54 62.8 207.54 C33.76 207.54 10.21 183.99 10.21 154.95 C10.21 125.91 33.76 102.36 62.8 102.36 C91.84 102.36 115.39 125.91 115.39 154.95" style="fill:#CAE1FC;" /><path d="M137.1 37.94 C97.48 37.94 64.33 65.67 56.03 102.79 C58.25 102.5 60.51 102.36 62.81 102.36 C91.86 102.36 115.4 125.91 115.4 154.95 C115.4 170.57 108.59 184.6 97.78 194.23 C109.49 200.53 122.88 204.11 137.1 204.11 C182.99 204.11 220.18 166.91 220.18 121.03 C220.18 75.15 182.98 37.95 137.1 37.95" style="fill:#E0E2FF;" /><path d="M62.8 102.36 C60.5 102.36 58.24 102.51 56.02 102.79 C54.71 108.66 54.01 114.76 54.01 121.02 C54.01 126.95 54.63 132.74 55.81 138.31 C56.41 138.21 57.03 138.15 57.66 138.15 C63.71 138.15 68.61 143.05 68.61 149.1 C68.61 153.21 66.35 156.79 63 158.66 C70.69 173.76 82.86 186.2 97.76 194.22 C108.57 184.59 115.38 170.56 115.38 154.94 C115.38 125.89 91.83 102.35 62.79 102.35" style="fill:#CBD6FE;" /><path d="M185.65 215.52 C168.76 215.52 155.06 216.94 155.06 218.69 C155.06 220.44 168.76 221.86 185.65 221.86 C202.54 221.86 216.24 220.44 216.24 218.69 C216.24 216.94 202.55 215.52 185.65 215.52" style="fill:#E5EBFF;" /><path d="M204.54 228.85 C195.31 228.85 187.83 229.68 187.83 230.71 C187.83 231.74 195.31 232.57 204.54 232.57 C213.77 232.57 221.25 231.74 221.25 230.71 C221.25 229.68 213.77 228.85 204.54 228.85" style="fill:#F4E4E6;" /><path d="M43.05 226.72 C28.75 226.72 17.15 227.44 17.15 228.34 C17.15 229.24 28.74 229.96 43.05 229.96 C57.36 229.96 68.95 229.24 68.95 228.34 C68.95 227.44 57.35 226.72 43.05 226.72" style="fill:#E5EBFF;" /><path d="M110.92 90.71 C107.13 90.71 104.05 93.79 104.05 97.58 C104.05 101.37 107.13 104.45 110.92 104.45 C114.71 104.45 117.79 101.37 117.79 97.58 C117.79 93.79 114.71 90.71 110.92 90.71" style="fill:#E9EBFF;" /><path d="M74.85 115.62 C72 115.62 69.7 117.93 69.7 120.77 C69.7 123.61 72.01 125.92 74.85 125.92 C77.69 125.92 80 123.61 80 120.77 C80 117.93 77.69 115.62 74.85 115.62" style="fill:#EAEFFF;" /><path d="M55.82 138.32 C50.65 139.2 46.72 143.7 46.72 149.11 C46.72 155.16 51.62 160.06 57.67 160.06 C59.61 160.06 61.43 159.55 63.01 158.67 C59.77 152.31 57.33 145.49 55.81 138.31" style="fill:#DAEAFD;" /><path d="M57.67 138.16 C57.04 138.16 56.42 138.21 55.82 138.32 C57.34 145.49 59.78 152.32 63.02 158.68 C66.36 156.81 68.63 153.23 68.63 149.12 C68.63 143.07 63.73 138.17 57.68 138.17" style="fill:#DBE2FE;" /></g><g><path d="M245.79 207.94 C245.79 210.3 244.99 210.93 241.54 212.22 C238.09 213.51 236.21 214.15 236.21 214.15 C233.86 214.15 231.96 212.23 231.96 209.87 L231.96 27.55 C231.96 25.19 233.86 23.27 236.21 23.27 C236.21 23.27 237.83 23.08 240.73 23.93 C243.64 24.77 245.36 26.28 245.36 28.64 L245.78 207.95 z" style="fill:#B0BCD8;" /><path d="M238.84 210.5 C238.84 212.6 237.34 214.3 235.5 214.3 L180.48 195.26 C178.63 195.26 177.14 193.56 177.14 191.46 L175.42 41.87 C175.42 39.77 176.92 38.07 178.76 38.07 L235.5 23.24 C237.34 23.24 238.84 24.94 238.84 27.04 L238.84 210.5 z" style="fill:#B0BCD8;" /><path d="M245.36 204.94 C245.36 207.3 244.56 207.93 241.11 209.22 C237.66 210.51 235.78 211.15 235.78 211.15 C233.43 211.15 231.53 209.23 231.53 206.87 L231.53 24.54 C231.53 22.18 233.43 20.26 235.78 20.26 C235.78 20.26 237.4 20.07 240.3 20.92 C243.21 21.76 244.93 23.27 244.93 25.63 L245.35 204.94 z" style="fill:#0B1238;" /><path d="M238.42 207.5 C238.42 209.6 236.92 211.3 235.08 211.3 L180.06 192.26 C178.21 192.26 176.72 190.56 176.72 188.46 L175 38.87 C175 36.77 176.5 35.07 178.34 35.07 L235.08 20.24 C236.92 20.24 238.42 21.94 238.42 24.04 L238.42 207.5 z" style="fill:#2E3054;" /><path d="M175 38.87 L176.26 148.34 L234.54 21.1 C234.5 20.87 234.44 20.65 234.39 20.42 L178.33 35.07 C176.48 35.07 174.99 36.77 174.99 38.87 z" opacity="0.2" style="fill:white;" /><path d="M228.58 40.64 L183.5 51.39 C181.87 51.39 180.55 52.66 180.55 54.24 L182.94 170.57 C182.94 172.14 184.26 173.41 185.89 173.41 L228.59 183.86 C230.22 183.86 231.54 182.59 231.54 181.02 L231.54 43.49 C231.54 41.92 230.22 40.64 228.59 40.64" style="fill:#E5EBFF;" /></g><g><path d="M137.97 134.57 C140.88 132.96 143.36 127.22 147.07 124.92 C147.07 124.92 146.01 123.93 143.63 124.94 C141.25 125.95 140.47 127.63 139.48 128.69 L137.96 134.57 z" style="fill:#BA6B4F;" /><path d="M129.01 135.27 C132.39 134.39 135.98 128.7 140.31 127.29 C140.31 127.29 139.34 125.83 136.63 126.2 C133.92 126.57 132.82 128.23 131.59 129.11 L129.01 135.28 z" style="fill:#BA6B4F;" /><path d="M122.54 133.73 C125.82 132.9 129.25 127.29 133.47 125.95 C133.47 125.95 132.51 124.49 129.86 124.82 C127.22 125.15 126.16 126.78 124.97 127.64 L122.53 133.73 z" style="fill:#BA6B4F;" /><path d="M116.97 131.23 C120.25 130.4 123.69 124.79 127.9 123.45 C127.9 123.45 126.94 121.99 124.29 122.32 C121.65 122.65 120.59 124.28 119.4 125.14 L116.96 131.23 z" style="fill:#BA6B4F;" /><g><path d="M163.63 141.33 L173.3 221.93 L163.11 228.5 L163.63 141.33 z" style="fill:#2E3054;" /><path d="M163.11 228.5 L92.33 230.42 L90.96 144.38 L163.63 141.33 L163.11 228.5 z" style="fill:#7AB6F6;" /><path d="M147.54 153 C147.57 153.91 146.77 154.68 145.77 154.7 C144.77 154.73 143.93 154.01 143.91 153.09 C143.88 152.17 144.68 151.41 145.68 151.38 C146.68 151.35 147.52 152.07 147.54 152.99 z" style="fill:#E4EDF1;" /><path d="M108.16 154.25 C108.19 155.16 107.41 155.93 106.42 155.95 C105.44 155.98 104.62 155.25 104.6 154.34 C104.57 153.43 105.35 152.66 106.33 152.63 C107.31 152.6 108.13 153.32 108.16 154.24 z" style="fill:#E4EDF1;" /><path d="M163.11 228.5 L167.56 220.54 L173.3 221.93 L163.11 228.5 z" style="fill:#0B1238;" /><path d="M146.38 152.95 C146.38 152.87 146.38 152.76 146.38 152.62 C146.29 148.6 144.92 121.77 125.84 121.74 C121.95 121.73 118.53 122.91 115.69 125.24 C106.5 132.79 105.94 150 105.91 153.34 C105.91 153.45 105.85 153.75 105.86 153.82 C105.86 154.05 106.1 154.23 106.38 154.22 C106.63 154.22 106.84 154.06 106.87 153.86 L106.92 153.86 C106.92 153.86 106.92 153.73 106.92 153.52 C106.94 150.84 107.42 133.19 116.4 125.81 C119.04 123.65 122.22 122.56 125.81 122.56 C143.9 122.59 145.26 149.4 145.35 152.75 C145.35 152.83 145.35 153.04 145.35 153.05 C145.41 153.28 145.62 153.41 145.86 153.4 C146.09 153.4 146.29 153.26 146.34 153.08 C146.34 153.08 146.35 152.96 146.35 152.95 z" style="fill:#0B1238;" /></g><g><path d="M159.11 154.8 L139.86 233.66 L128.02 236.24 L159.11 154.8 z" style="fill:#2E3054;" /><path d="M128.02 236.24 L61.07 213.2 L89.99 132.15 L159.11 154.8 L128.02 236.24 z" style="fill:#2A2B7C;" /><path d="M139.94 160.08 C139.64 160.95 138.63 161.38 137.68 161.05 C136.73 160.72 136.2 159.76 136.5 158.89 C136.8 158.02 137.81 157.59 138.76 157.91 C139.71 158.24 140.24 159.2 139.94 160.07 z" style="fill:#E4EDF1;" /><path d="M102.63 147.43 C102.33 148.29 101.34 148.74 100.41 148.42 C99.48 148.1 98.97 147.14 99.27 146.27 C99.57 145.4 100.56 144.96 101.49 145.28 C102.42 145.6 102.93 146.56 102.63 147.43 z" style="fill:#E4EDF1;" /><path d="M128.02 236.24 L134.98 230.35 L139.86 233.66 L128.02 236.24 z" style="fill:#0B1238;" /><path d="M138.87 159.62 C138.9 159.54 138.93 159.44 138.98 159.31 C140.3 155.52 148.44 129.92 130.59 123.18 C126.95 121.8 123.34 121.71 119.86 122.9 C108.6 126.74 102.03 142.66 100.84 145.78 C100.8 145.89 100.64 146.15 100.62 146.21 C100.55 146.43 100.7 146.68 100.97 146.77 C101.21 146.85 101.46 146.77 101.56 146.6 L101.61 146.62 C101.61 146.62 101.65 146.5 101.73 146.3 C102.69 143.79 109.33 127.44 120.34 123.68 C123.57 122.58 126.93 122.68 130.3 123.94 C147.22 130.32 139.09 155.9 138 159.07 C137.97 159.14 137.9 159.34 137.9 159.36 C137.88 159.59 138.03 159.79 138.26 159.87 C138.48 159.95 138.71 159.89 138.83 159.74 C138.83 159.74 138.88 159.63 138.89 159.62 z" style="fill:#0B1238;" /></g><g><path d="M168.15 132.37 L186.72 211.4 L177.33 219.06 L168.15 132.37 z" style="fill:#EAB2B4;" /><path d="M177.33 219.06 L107.21 228.85 L96.27 143.5 L168.15 132.37 L177.33 219.06 z" style="fill:#FA7071;" /><path d="M153.45 145.76 C153.58 146.67 152.87 147.51 151.88 147.65 C150.89 147.79 149.98 147.17 149.85 146.26 C149.72 145.35 150.43 144.51 151.42 144.37 C152.42 144.23 153.32 144.85 153.45 145.76 z" style="fill:#E4EDF1;" /><path d="M114.46 151.39 C114.59 152.29 113.9 153.14 112.93 153.28 C111.96 153.42 111.07 152.79 110.94 151.89 C110.81 150.98 111.5 150.14 112.47 150 C113.44 149.86 114.34 150.49 114.46 151.4 z" style="fill:#E4EDF1;" /><path d="M177.33 219.06 L180.87 210.66 L186.72 211.4 L177.33 219.06 z" style="fill:#EAB2B4;" /><path d="M157.83 143.84 L153.16 148.7 L153.3 153.67 L165.86 165.76 L171.15 160.27 L170.15 150.85 L162.81 143.79 L157.83 143.85 z M158.11 147.71 C157.73 148.1 157.11 148.12 156.71 147.74 C156.32 147.36 156.31 146.74 156.68 146.35 C157.05 145.95 157.68 145.94 158.08 146.32 C158.47 146.7 158.48 147.32 158.11 147.71 z" style="fill:#C3CFCE;" /><path d="M158.01 143.09 L153.34 147.95 L153.48 152.92 L166.04 165.01 L175.55 155.13 L162.99 143.04 L158.01 143.1 z M157.73 147.5 C157.5 147.74 157.11 147.75 156.87 147.52 C156.63 147.29 156.62 146.9 156.85 146.66 C157.08 146.42 157.47 146.41 157.71 146.64 C157.95 146.87 157.96 147.26 157.73 147.5 z" style="fill:white;" /><path d="M156.38 146.2 C155.9 146.7 155.92 147.49 156.42 147.97 C156.92 148.45 157.71 148.43 158.19 147.94 C158.67 147.44 158.66 146.65 158.16 146.17 C157.66 145.69 156.87 145.71 156.39 146.2 z M157.72 147.49 C157.49 147.73 157.1 147.74 156.86 147.51 C156.62 147.28 156.61 146.89 156.84 146.65 C157.07 146.41 157.46 146.4 157.7 146.63 C157.94 146.86 157.95 147.25 157.72 147.49 z" style="fill:#3D3942;" /><path d="M149.86 138.78 L149.54 138.91 C149.08 139.99 150.51 142.23 151.14 143.15 C152 144.39 153.18 145.88 154.42 146.85 L154.78 146.38 C153.74 145.6 152.62 144.41 151.53 142.83 C150.51 141.36 149.92 140.07 149.93 139.4 C151.33 140.13 157.65 143.63 157.02 146.63 C156.96 146.9 156.8 147.15 156.7 147.23 C156.71 147.32 156.73 147.3 156.81 147.42 C156.89 147.54 156.99 147.63 157.03 147.6 C157.23 147.45 157.41 147.2 157.5 146.76 C158.29 142.98 150.19 138.95 149.85 138.78 z" style="fill:#2E3054;" /><path d="M152.29 145.84 C152.28 145.76 152.26 145.65 152.25 145.51 C151.71 141.53 147.37 115.02 128.4 117.1 C124.53 117.52 121.27 119.08 118.71 121.71 C110.41 130.23 111.77 147.41 112.12 150.73 C112.13 150.84 112.12 151.15 112.12 151.21 C112.15 151.44 112.4 151.59 112.68 151.55 C112.93 151.52 113.12 151.34 113.13 151.14 L113.18 151.14 C113.18 151.14 113.16 151 113.14 150.79 C112.86 148.12 111.37 130.53 119.48 122.2 C121.86 119.76 124.9 118.32 128.47 117.92 C146.45 115.94 150.78 142.43 151.25 145.75 C151.26 145.83 151.29 146.04 151.29 146.05 C151.38 146.27 151.6 146.37 151.84 146.34 C152.07 146.31 152.25 146.15 152.28 145.97 C152.28 145.97 152.28 145.85 152.28 145.84 z" style="fill:#0B1238;" /><path d="M151.53 142.83 C151.18 142.33 150.49 141.02 150.25 140.58 C150.23 141.1 150.34 141.53 150.2 141.62 C150.53 142.23 150.89 142.79 151.14 143.15 C151.45 143.6 151.82 144.09 152.23 144.58 C152.36 144.48 152.48 144.36 152.58 144.22 C152.22 143.79 151.86 143.32 151.53 142.83 z" style="fill:#2E3054;" /><path d="M156.63 146.46 C156.29 146.81 156.3 147.37 156.65 147.71 C157 148.05 157.56 148.04 157.9 147.69 C158.24 147.34 158.23 146.78 157.87 146.44 C157.52 146.1 156.96 146.11 156.62 146.46 z M157.71 147.76 C157.48 148 157.09 148.01 156.85 147.78 C156.61 147.55 156.6 147.16 156.83 146.92 C157.06 146.68 157.45 146.67 157.69 146.9 C157.93 147.13 157.94 147.52 157.71 147.76 z" style="fill:#C3CFCE;" /></g><path d="M129.62 104.45 C129.62 104.45 119.93 111.9 116.78 113.35 C113.72 115.57 111.57 115.99 113.49 116.11 C114.63 116.61 117.41 116 118.83 115.77 C121.7 115.31 124.35 113.37 125.75 112.76 C127.83 111.86 132.21 107.2 132.21 107.2 L129.63 104.45 z" style="fill:#BA6B4F;" /><path d="M128.86 110.03 L127.87 109.33 C127.87 109.33 120.28 115.16 116.77 115.98 C117.32 116.04 120.27 116.15 123.48 113.99 C128.82 111.06 128.86 110.04 128.86 110.04 z" style="fill:#AC4C31;" /><path d="M212.83 84.84 L139.86 95.63 C134.16 97.23 127.74 107.04 126.39 109.64 L115.42 125.98 C115.42 125.98 113.21 129.75 116.15 131.07 C118.32 132.04 119.97 128.03 121.65 125.86 C123.32 123.69 127.11 117.4 127.11 117.4 C127.11 117.4 122.82 126.23 121.75 128.24 C120.69 130.26 119.92 132.52 121.87 133.47 C123.13 134.23 124.74 132.88 126.26 130.87 C127.78 128.86 133.47 118.59 133.47 118.59 C133.47 118.59 129.1 127.53 128.51 129.53 C127.92 131.53 126.92 133.81 128.39 134.94 C129.86 136.07 132.24 133.09 133.07 131.69 C133.9 130.29 139.37 120.88 139.37 120.88 C139.37 120.88 137.27 127.25 136.42 129.57 C135.57 131.89 135.91 134.63 137.36 134.76 C139.46 134.94 140.13 133.01 140.13 133.01 C142.33 128.14 141.79 127.64 145.86 116 C146.73 113.53 147.63 107.52 152.3 107.47 C162.37 106.3 201.94 109.58 211.96 108.72 L211.96 108.67 C212.06 108.69 212.15 108.72 212.25 108.72 C214.31 108.72 215.97 103.34 215.97 96.7 C215.97 90.67 214.6 85.7 212.81 84.83 z" style="fill:#BA6B4F;" /><g><path d="M124.37 120.2 C123.29 122.12 119.12 128.44 117.32 131.14 C118.95 130.61 120.99 128.12 122.25 126.28 C123.89 123.89 125.95 119.33 126.85 117.86 C126.51 117.9 125.49 118.19 124.37 120.2 z" style="fill:#AC4C31;" /><path d="M130.27 121.87 C129.1 123.94 125.43 131.5 122.65 133.71 C123.76 133.71 125.06 133.22 126.39 131.46 C127.72 129.7 128.56 128.02 129.11 127.12 L132.11 121.06 C132.52 120.34 132.86 119.73 133.1 119.3 C132.9 119.3 131.67 119.4 130.28 121.87 z" style="fill:#AC4C31;" /><path d="M132.64 132.4 L139.23 121.14 C139.23 121.14 137.87 120.99 136.33 123.7 C135.2 125.7 131.63 133.85 128.86 135.19 C130.1 135.48 131.71 133.73 132.64 132.41 z" style="fill:#AC4C31;" /></g><g><path d="M125.68 122.54 C127.83 118.31 127.12 117.9 126.9 117.87 C126.02 119.68 122.22 126.43 121.3 128.18 C120.42 129.84 120.22 131.77 121.1 132.89 C120.94 131.23 123.43 126.96 125.68 122.54 z" style="fill:#DD957F;" /><path d="M128.26 134.83 C128.19 133.02 129.75 128.91 131.64 124.44 C133.58 119.85 133.28 119.39 133.1 119.39 C131.43 122.11 128.71 127.48 128.23 129.12 C127.67 131.05 127.01 133.66 128.26 134.82 z" style="fill:#DD957F;" /><path d="M136.67 134.44 C136.38 132.86 136.94 129.83 138.28 126.41 C140.12 121.72 139.5 121.27 139.29 121.22 C138.86 122.52 137.18 127.58 136.44 129.59 C135.75 131.47 135.84 133.61 136.67 134.44 z" style="fill:#DD957F;" /></g></g><path d="M155.01 182.61 C155.01 192.41 147.06 200.36 137.26 200.36 C127.46 200.36 119.51 192.41 119.51 182.61 C119.51 172.81 127.46 164.86 137.26 164.86 C147.06 164.86 155.01 172.81 155.01 182.61 z" style="fill:#EAB2B4;" /><g><path d="M44.36 167.12 C39.38 167.12 36.73 181.2 36.38 184.62 C36.1 187.4 35.98 190.19 35.98 193 C35.98 204.27 37.91 215.69 39.01 226.71 L41.65 225.83 C45.16 213.92 47.71 200.02 47.8 187.15 C47.82 184.42 48.88 179.5 48.88 175.2 C48.88 171.96 48.27 169.06 46.15 167.7 C45.52 167.3 44.93 167.12 44.36 167.12" style="fill:#6A6BA4;" /><path d="M57.45 217.49 C56.96 216.68 56.09 216.21 55.07 216.21 C54.36 216.21 53.6 216.42 52.82 216.84 C55.44 210.12 58.35 199.83 52.92 197.16 C52.37 196.89 51.83 196.75 51.32 196.75 C47.47 196.75 46.15 204.07 45.28 208.92 C45.09 209.95 44.93 210.84 44.79 211.41 C44.35 213.1 43.85 214.85 43.36 216.55 C42.53 219.41 41.69 222.35 41.09 225.23 C41.37 216.46 37.7 204.77 34.68 197.42 C33.54 194.63 27.32 185.41 23.39 187.3 C19.65 189.1 24.83 198.94 26.26 201.22 C25.23 199.9 23.1 198.75 20.98 198.78 C17.13 198.84 17.96 199.58 18.34 202.73 C18.93 207.59 22.62 210.3 25.99 213.17 C23.48 212.23 19.48 212.39 19.62 216.06 C19.75 219.52 38.33 228.13 40.43 229.09 L40.43 229.2 L40.61 229.17 L40.63 229.17 L49.34 227.79 L49.95 227.53 C52.58 226.3 55.56 224.91 57.02 222.19 C57.99 220.38 58.14 218.67 57.44 217.49 z M56.26 221.77 C54.93 224.24 52.22 225.51 49.59 226.73 L49.16 226.93 L41.45 228.15 C41.99 224.45 43.11 220.55 44.2 216.78 C44.69 215.08 45.2 213.32 45.64 211.62 C45.8 211.02 45.96 210.11 46.15 209.06 C46.87 205.06 48.21 197.62 51.33 197.62 C51.71 197.62 52.12 197.73 52.54 197.94 C57.88 200.57 53.59 212.7 51.49 217.79 L50.85 219.33 L52.16 218.3 C53.45 217.29 54.45 217.07 55.06 217.07 C55.78 217.07 56.36 217.37 56.69 217.92 C57.22 218.81 57.06 220.25 56.25 221.75 z" style="fill:#2A2B7C;" /></g><g><rect x="28.75" y="60.65" width="63.56" height="38.36" rx="4.29" ry="4.29" style="fill:#7AB6F6;" /><rect x="33.62" y="81.71" width="50.25" height="4.4" style="fill:#CAE1FC;" /><rect x="50.37" y="89.6" width="33.5" height="1.93" style="fill:#CAE1FC;" /><rect x="33.62" y="89.6" width="10.74" height="1.93" style="fill:#CAE1FC;" /><rect x="34.91" y="69.02" width="11.17" height="9.02" style="fill:#CAE1FC;" /><circle cx="74.63" cy="72.03" r="5.37" style="fill:#FA7071;" /><circle cx="81.93" cy="72.03" r="5.37" style="fill:white;" /></g><g><path d="M149.7 70.59 C149.7 81.68 140.71 90.67 129.61 90.67 C118.51 90.67 109.53 81.68 109.53 70.59 C109.53 59.5 118.52 50.5 129.61 50.5 C140.7 50.5 149.7 59.49 149.7 70.59 z" style="fill:#BFD4F8;" /><path d="M145.74 70.3 L140.52 70.3 C140.44 67.26 139.22 64.44 137.05 62.32 C134.82 60.14 131.84 58.94 128.66 58.94 C122.11 58.94 116.78 64.27 116.78 70.82 C116.78 77.37 122.11 82.7 128.66 82.7 C130.58 82.7 132.5 82.23 134.19 81.34 C134.22 81.32 134.25 81.3 134.27 81.27 L145.75 81.27 C146.29 81.27 146.73 80.83 146.73 80.29 L146.73 71.28 C146.73 70.74 146.29 70.3 145.75 70.3 z M123.26 70.81 C123.26 69.31 123.42 67.88 123.7 66.56 L128.22 66.56 L128.22 75.05 L123.7 75.05 C123.42 73.74 123.26 72.3 123.26 70.8 z M129.08 59.91 C130.98 60.21 132.6 62.48 133.43 65.7 L129.08 65.7 L129.08 59.91 z M128.22 59.91 L128.22 65.7 L123.91 65.7 C124.76 62.51 126.38 60.23 128.22 59.91 z M128.22 75.91 L128.22 81.69 C126.38 81.38 124.76 79.09 123.91 75.91 L128.22 75.91 z M130.85 80.75 C130.29 81.32 129.75 81.62 129.08 81.7 L129.08 75.91 L130.7 75.91 L130.7 80.27 C130.7 80.45 130.76 80.61 130.84 80.75 z M130.71 71.26 L130.71 75.04 L129.09 75.04 L129.09 66.55 L133.65 66.55 C133.89 67.71 134.02 68.96 134.04 70.28 L131.69 70.28 C131.15 70.28 130.71 70.72 130.71 71.26 z M134.9 70.28 C134.88 68.96 134.75 67.71 134.52 66.55 L138.88 66.55 C139.34 67.7 139.61 68.96 139.64 70.28 L134.89 70.28 z M138.49 65.69 L134.33 65.69 C133.72 63.23 132.68 61.27 131.36 60.12 C134.51 60.88 137.08 62.93 138.49 65.69 z M125.94 60.14 C124.65 61.29 123.61 63.25 123 65.69 L118.9 65.69 C120.34 62.96 122.88 60.92 125.93 60.14 z M118.49 66.55 L122.81 66.55 C122.55 67.86 122.4 69.29 122.4 70.8 C122.4 72.31 122.55 73.73 122.81 75.05 L118.49 75.05 C117.94 73.74 117.64 72.31 117.64 70.8 C117.64 69.29 117.94 67.86 118.49 66.55 z M118.9 75.9 L123 75.9 C123.61 78.35 124.64 80.3 125.94 81.45 C122.89 80.67 120.34 78.63 118.91 75.9 z M131.33 81.47 C131.42 81.39 131.51 81.31 131.59 81.22 C131.62 81.22 131.65 81.24 131.68 81.24 L132.08 81.24 C131.83 81.32 131.58 81.41 131.33 81.47 z M145.85 80.26 C145.85 80.32 145.8 80.37 145.74 80.37 L131.69 80.37 C131.63 80.37 131.58 80.32 131.58 80.26 L131.58 75.51 C131.58 75.51 131.58 75.49 131.58 75.47 C131.58 75.45 131.58 75.45 131.58 75.43 L131.58 71.25 C131.58 71.19 131.63 71.14 131.69 71.14 L145.74 71.14 C145.8 71.14 145.85 71.19 145.85 71.25 L145.85 80.26 z" style="fill:white;" /><path d="M135.68 77.73 L133.09 77.73 C132.55 77.73 132.11 77.29 132.11 76.75 L132.11 74.84 C132.11 74.3 132.55 73.86 133.09 73.86 L135.68 73.86 C136.22 73.86 136.66 74.3 136.66 74.84 L136.66 76.75 C136.66 77.29 136.22 77.73 135.68 77.73 z M133.09 74.73 C133.03 74.73 132.98 74.78 132.98 74.84 L132.98 76.75 C132.98 76.81 133.03 76.86 133.09 76.86 L135.68 76.86 C135.74 76.86 135.79 76.81 135.79 76.75 L135.79 74.84 C135.79 74.78 135.74 74.73 135.68 74.73 L133.09 74.73 z" style="fill:white;" /><g><path d="M134.65 79.51 L132.63 79.51 C132.39 79.51 132.2 79.32 132.2 79.08 C132.2 78.84 132.39 78.65 132.63 78.65 L134.65 78.65 C134.89 78.65 135.08 78.84 135.08 79.08 C135.08 79.32 134.89 79.51 134.65 79.51 z" style="fill:white;" /><path d="M138.12 79.51 L136.1 79.51 C135.86 79.51 135.67 79.32 135.67 79.08 C135.67 78.84 135.86 78.65 136.1 78.65 L138.12 78.65 C138.36 78.65 138.55 78.84 138.55 79.08 C138.55 79.32 138.36 79.51 138.12 79.51 z" style="fill:white;" /><path d="M141.59 79.51 L139.57 79.51 C139.33 79.51 139.14 79.32 139.14 79.08 C139.14 78.84 139.33 78.65 139.57 78.65 L141.59 78.65 C141.83 78.65 142.02 78.84 142.02 79.08 C142.02 79.32 141.83 79.51 141.59 79.51 z" style="fill:white;" /><path d="M145.06 79.51 L143.04 79.51 C142.8 79.51 142.61 79.32 142.61 79.08 C142.61 78.84 142.8 78.65 143.04 78.65 L145.06 78.65 C145.3 78.65 145.49 78.84 145.49 79.08 C145.49 79.32 145.3 79.51 145.06 79.51 z" style="fill:white;" /><path d="M144.23 73.12 L138.89 73.12 C138.65 73.12 138.46 72.93 138.46 72.69 C138.46 72.45 138.65 72.26 138.89 72.26 L144.23 72.26 C144.47 72.26 144.66 72.45 144.66 72.69 C144.66 72.93 144.47 73.12 144.23 73.12 z" style="fill:white;" /></g></g><g><path d="M62.45 40.65 C62.45 45.71 58.35 49.81 53.29 49.81 C48.23 49.81 44.13 45.71 44.13 40.65 C44.13 35.59 48.23 31.49 53.29 31.49 C58.35 31.49 62.45 35.59 62.45 40.65 z" style="fill:#7AB6F6;" /><path d="M53.72 46.97 L53.59 45.46 C52.68 45.52 51.72 45.32 51.14 45 L51.43 43.97 C52.02 44.28 52.86 44.5 53.74 44.43 C54.85 44.34 55.54 43.67 55.47 42.82 C55.4 42 54.74 41.54 53.55 41.19 C51.9 40.72 50.86 40.11 50.74 38.82 C50.63 37.58 51.47 36.57 52.89 36.23 L52.76 34.72 L53.73 34.64 L53.86 36.09 C54.8 36.04 55.46 36.23 55.94 36.45 L55.64 37.47 C55.3 37.32 54.63 37.04 53.63 37.12 C52.43 37.22 52.04 37.94 52.09 38.54 C52.16 39.31 52.77 39.66 54.18 40.08 C55.84 40.58 56.72 41.29 56.84 42.61 C56.94 43.79 56.18 44.96 54.6 45.34 L54.74 46.89 L53.76 46.97 z" style="fill:#E4EDF1;" /></g><g><path d="M115.32 35.91 C115.32 44.83 108.08 52.07 99.16 52.07 C90.24 52.07 83 44.84 83 35.91 C83 26.98 90.23 19.75 99.16 19.75 C108.09 19.75 115.32 26.98 115.32 35.91 z" style="fill:#93C8F6;" /><path d="M97.84 45.03 L95.23 45.03 C95.05 45.03 94.89 44.88 94.89 44.69 C94.89 44.5 95.04 44.35 95.23 44.35 L97.84 44.35 C98.03 44.35 98.18 44.5 98.18 44.69 C98.18 44.88 98.03 45.03 97.84 45.03 z" style="fill:white;" /><path d="M108.67 32.86 L102.71 32.86 L102.71 28.23 C102.71 27.15 101.83 26.27 100.75 26.27 L92.32 26.27 C91.24 26.27 90.36 27.15 90.36 28.23 L90.36 44.51 C90.36 45.59 91.24 46.47 92.32 46.47 L100.75 46.47 C101.83 46.47 102.71 45.59 102.71 44.51 L102.71 41.18 L108.67 41.18 C109.08 41.18 109.42 40.84 109.42 40.43 L109.42 33.61 C109.42 33.2 109.08 32.86 108.67 32.86 z M92.32 26.93 L100.75 26.93 C101.46 26.93 102.04 27.51 102.04 28.22 L102.04 28.81 L91.02 28.81 L91.02 28.22 C91.02 27.51 91.6 26.93 92.31 26.93 z M100.75 45.79 L92.32 45.79 C91.61 45.79 91.03 45.21 91.03 44.5 L91.03 44.04 L102.05 44.04 L102.05 44.5 C102.05 45.21 101.47 45.79 100.76 45.79 z M102.04 43.36 L91.02 43.36 L91.02 29.47 L102.04 29.47 L102.04 32.85 L98.03 32.85 C97.62 32.85 97.28 33.19 97.28 33.6 L97.28 40.42 C97.28 40.83 97.62 41.17 98.03 41.17 L102.04 41.17 L102.04 43.37 z M108.74 40.42 C108.74 40.42 108.7 40.5 108.66 40.5 L98.02 40.5 C98.02 40.5 97.94 40.47 97.94 40.42 L97.94 33.6 C97.94 33.6 97.98 33.52 98.02 33.52 L108.66 33.52 C108.66 33.52 108.74 33.55 108.74 33.6 L108.74 40.42 z" style="fill:white;" /><path d="M101.06 38.5 L99.1 38.5 C98.69 38.5 98.35 38.16 98.35 37.75 L98.35 36.3 C98.35 35.89 98.69 35.55 99.1 35.55 L101.06 35.55 C101.47 35.55 101.81 35.89 101.81 36.3 L101.81 37.75 C101.81 38.16 101.47 38.5 101.06 38.5 z M99.1 36.23 C99.1 36.23 99.02 36.26 99.02 36.31 L99.02 37.76 C99.02 37.76 99.06 37.84 99.1 37.84 L101.06 37.84 C101.06 37.84 101.14 37.81 101.14 37.76 L101.14 36.31 C101.14 36.31 101.11 36.23 101.06 36.23 L99.1 36.23 z" style="fill:white;" /><g><path d="M100.28 39.84 L98.75 39.84 C98.56 39.84 98.41 39.69 98.41 39.5 C98.41 39.31 98.56 39.16 98.75 39.16 L100.28 39.16 C100.47 39.16 100.62 39.31 100.62 39.5 C100.62 39.69 100.47 39.84 100.28 39.84 z" style="fill:white;" /><path d="M102.91 39.84 L101.38 39.84 C101.19 39.84 101.04 39.69 101.04 39.5 C101.04 39.31 101.19 39.16 101.38 39.16 L102.91 39.16 C103.1 39.16 103.25 39.31 103.25 39.5 C103.25 39.69 103.1 39.84 102.91 39.84 z" style="fill:white;" /><path d="M105.53 39.84 L104 39.84 C103.81 39.84 103.66 39.69 103.66 39.5 C103.66 39.31 103.81 39.16 104 39.16 L105.53 39.16 C105.72 39.16 105.87 39.31 105.87 39.5 C105.87 39.69 105.72 39.84 105.53 39.84 z" style="fill:white;" /><path d="M108.16 39.84 L106.63 39.84 C106.44 39.84 106.29 39.69 106.29 39.5 C106.29 39.31 106.44 39.16 106.63 39.16 L108.16 39.16 C108.35 39.16 108.5 39.31 108.5 39.5 C108.5 39.69 108.35 39.84 108.16 39.84 z" style="fill:white;" /><path d="M107.53 35.01 L103.49 35.01 C103.31 35.01 103.16 34.86 103.16 34.67 C103.16 34.48 103.31 34.33 103.49 34.33 L107.53 34.33 C107.72 34.33 107.87 34.48 107.87 34.67 C107.87 34.86 107.72 35.01 107.53 35.01 z" style="fill:white;" /></g></g><path d="M65.08 53.57 C64.61 53.57 64.18 53.36 63.89 53 L61.47 49.95 L60.74 50.53 C60.5 50.72 60.23 50.82 59.96 50.82 C59.42 50.82 58.99 50.41 58.9 49.8 L57.92 43.15 C57.86 42.77 57.95 42.42 58.17 42.17 C58.47 41.82 58.98 41.72 59.48 41.92 L65.73 44.39 C66.16 44.56 66.44 44.88 66.5 45.28 C66.56 45.67 66.38 46.06 66.02 46.35 L65.29 46.93 L67.71 49.98 C68.23 50.63 68.12 51.59 67.47 52.11 L66.05 53.24 C65.78 53.45 65.45 53.57 65.11 53.57 z M61.58 48.42 C61.77 48.42 61.95 48.5 62.08 48.66 L64.89 52.2 C64.95 52.28 65.05 52.29 65.08 52.29 C65.12 52.29 65.17 52.29 65.23 52.24 L66.65 51.11 C66.75 51.03 66.77 50.87 66.69 50.77 L63.88 47.23 C63.78 47.1 63.73 46.93 63.75 46.76 C63.77 46.59 63.85 46.44 63.99 46.33 L65.05 45.49 L59.22 43.18 L60.14 49.38 L61.2 48.54 C61.32 48.45 61.46 48.4 61.59 48.4 z" style="fill:#2A2B7C;" /><path d="M151.29 46 L150.57 44.92 C149.87 43.87 143.77 34.54 143.77 30.72 C143.77 26.58 147.14 23.2 151.29 23.2 C155.44 23.2 158.81 26.57 158.81 30.72 C158.81 34.54 152.71 43.87 152.01 44.92 L151.29 46 z M151.29 24.92 C148.09 24.92 145.49 27.52 145.49 30.72 C145.49 33.21 149.19 39.55 151.29 42.87 C153.39 39.56 157.09 33.21 157.09 30.72 C157.09 27.52 154.49 24.92 151.29 24.92 z M151.29 35.74 C148.52 35.74 146.27 33.49 146.27 30.72 C146.27 27.95 148.52 25.7 151.29 25.7 C154.06 25.7 156.31 27.95 156.31 30.72 C156.31 33.49 154.06 35.74 151.29 35.74 z M151.29 27.42 C149.47 27.42 147.99 28.9 147.99 30.72 C147.99 32.54 149.47 34.02 151.29 34.02 C153.11 34.02 154.59 32.54 154.59 30.72 C154.59 28.9 153.11 27.42 151.29 27.42 z" style="fill:#FA7071;" /></g></g></g></svg>