<svg overflow="hidden" viewBox="0, 0, 256, 244.58" id="0078495c-24a2-4ad1-a268-e1423a6f7dc4" xmlns="http://www.w3.org/2000/svg" xmlns:xlink="http://www.w3.org/1999/xlink" xmlns:xml="http://www.w3.org/XML/1998/namespace" version="1.1"><defs><linearGradient x1="-645.54" y1="60.03" x2="-640.97" y2="60.03" gradientUnits="userSpaceOnUse" gradientTransform="translate(790.19, 0)" id="c"><stop offset="0%" stop-color="#666666" /><stop offset="46%" stop-color="#646464" /><stop offset="62%" stop-color="#5D5D5D" /><stop offset="74%" stop-color="#515151" /><stop offset="83%" stop-color="#404040" /><stop offset="92%" stop-color="#2A2A2A" /><stop offset="99%" stop-color="#101010" /><stop offset="100%" stop-color="#0A0A0A" /></linearGradient><linearGradient x1="-701.01" y1="61.89" x2="-694.63" y2="61.89" xlink:href="#c" id="d" /></defs><g id="b"><g><path d="M245.77 136.03 C245.77 173.52 215.38 203.9 177.9 203.9 C140.42 203.9 110.03 173.51 110.03 136.03 C110.03 98.55 140.42 68.16 177.9 68.16 C215.38 68.16 245.77 98.55 245.77 136.03" style="fill:#CAE1FC;" /><path d="M170.67 10.35 C153.51 10.35 137.84 16.72 125.89 27.22 C144.36 35.51 159.21 50.44 167.41 68.96 C170.83 68.43 174.33 68.16 177.89 68.16 C201.94 68.16 223.07 80.67 235.13 99.54 C237.34 92.84 238.54 85.67 238.54 78.23 C238.54 40.75 208.15 10.36 170.67 10.36" style="fill:#F4E0EA;" /><path d="M177.9 68.15 C174.34 68.15 170.83 68.43 167.42 68.95 C171.91 79.1 174.4 90.32 174.4 102.13 C174.4 118.07 169.86 132.95 162 145.54 C164.84 145.9 167.74 146.09 170.68 146.09 C200.72 146.09 226.21 126.57 235.14 99.52 C223.08 80.65 201.96 68.14 177.9 68.14" style="fill:#CFCBE7;" /><path d="M92.31 20.06 C46.98 20.06 10.23 56.8 10.23 102.14 C10.23 147.48 46.98 184.22 92.31 184.22 C103.67 184.22 114.5 181.91 124.34 177.73 C115.36 166.22 110.02 151.75 110.02 136.02 C110.02 134.86 110.05 133.71 110.11 132.57 C110.37 129.43 111.22 122.74 112.3 118.52 C112.64 117.24 113.02 115.97 113.43 114.72 C109.75 108.96 106.91 102.61 105.1 95.84 C104.18 92.31 103.66 88.71 103.28 86.44 C102.96 83.75 102.79 81.01 102.79 78.23 C102.79 57.9 111.73 39.66 125.88 27.22 C115.63 22.62 104.26 20.06 92.3 20.06" style="fill:#E0E2FF;" /><path d="M113.43 114.72 C113.02 115.97 112.64 117.24 112.3 118.52 C110.5 125.68 110.02 134.48 110.02 136.02 C110.02 151.75 115.37 166.22 124.34 177.73 C139.95 171.11 153.09 159.79 161.98 145.54 C141.58 142.93 124.01 131.27 113.43 114.71" style="fill:#CBD6FE;" /><path d="M125.89 27.22 C111.73 39.66 102.8 57.9 102.8 78.23 C102.8 81.01 102.97 83.75 103.29 86.44 C103.89 90.09 104.83 94.73 105.11 95.84 C106.92 102.61 109.76 108.96 113.44 114.72 C121.31 90.88 142.04 72.89 167.42 68.96 C159.22 50.44 144.37 35.51 125.9 27.22" style="fill:#DCD6F6;" /><path d="M167.41 68.96 C142.03 72.89 121.31 90.88 113.43 114.72 C124.01 131.28 141.58 142.94 161.98 145.55 C169.84 132.96 174.38 118.08 174.38 102.14 C174.38 90.33 171.89 79.11 167.4 68.96" style="fill:#CDCDF5;" /><path d="M101.37 225.23 C83.36 225.23 68.77 226.96 68.77 229.08 C68.77 231.2 83.37 232.93 101.37 232.93 C119.37 232.93 133.97 231.2 133.97 229.08 C133.97 226.96 119.37 225.23 101.37 225.23" style="fill:#E5EBFF;" /><path d="M194.33 211.5 C194.33 213.24 166.82 214.64 132.89 214.64 C98.96 214.64 71.44 213.23 71.44 211.5 C71.44 209.77 98.95 208.36 132.89 208.36 C166.83 208.36 194.33 209.77 194.33 211.5 z" style="fill:#B0BCD8;" /><path d="M41.48 111.08 C41.48 114.35 38.83 117.01 35.55 117.01 C32.27 117.01 29.62 114.36 29.62 111.08 C29.62 107.8 32.27 105.15 35.55 105.15 C38.83 105.15 41.48 107.8 41.48 111.08 z" style="fill:#93C8F6;" /><path d="M63.23 63.24 C63.23 69.36 58.27 74.32 52.15 74.32 C46.03 74.32 41.07 69.36 41.07 63.24 C41.07 57.12 46.03 52.16 52.15 52.16 C58.27 52.16 63.23 57.12 63.23 63.24 z" style="fill:#BFD4F8;" /><path d="M216.44 49.91 C213.51 49.91 211.14 52.28 211.14 55.21 C211.14 58.14 213.52 60.51 216.44 60.51 C219.36 60.51 221.74 58.14 221.74 55.21 C221.74 52.28 219.36 49.91 216.44 49.91" style="fill:#F7E9F0;" /><path d="M207.93 227.63 C198.73 227.63 191.28 228.1 191.28 228.67 C191.28 229.24 198.74 229.71 207.93 229.71 C217.12 229.71 224.58 229.24 224.58 228.67 C224.58 228.1 217.12 227.63 207.93 227.63" style="fill:#E5EBFF;" /><path d="M38.78 231.39 C29.9 231.39 22.69 231.88 22.69 232.49 C22.69 233.1 29.89 233.6 38.78 233.6 C47.67 233.6 54.87 233.11 54.87 232.49 C54.87 231.87 47.67 231.39 38.78 231.39" style="fill:#E5EBFF;" /><path d="M161.92 145.65 C161.53 146.08 161.22 146.57 160.99 147.1 C161.31 146.62 161.62 146.13 161.92 145.65" style="fill:#E0E6FE;" /></g><path d="M234.94 110.23 C223.16 118.2 185.86 122.42 194.14 138.24 C176.85 139.83 172.56 145.69 175.98 157.14 C175.62 155.91 169.67 157.94 168.87 158.5 C167.54 159.41 166.16 161.8 165.55 163.05 C163.59 167.02 164.02 171.02 164.14 175.01 C164.28 179.76 163.84 184.59 163.06 189.36 C172 177.68 211.16 170.31 201.9 159.91 C208.07 159.3 219.51 158.63 223.65 154.11 C228.95 148.32 220.69 144.94 214.68 143.71 C237.82 136.99 233.85 130.03 228.97 122.24 L232.39 117.84 C233.86 115.43 234.79 112.69 234.95 110.24 z" style="fill:#B0B2FF;" /><path d="M183.82 138.58 C186.2 128.69 192.94 117.5 199.67 109.21 C204.22 103.6 217.07 89.62 225.76 92.34 C235.5 95.39 227.33 113.96 223.17 119.46 C217.07 127.53 209.01 132.61 200.28 137.68 C192 142.48 184.44 148.68 176.36 153.18 L183.81 138.58 z" style="fill:#4B60A4;" /><g><path d="M174.59 133.3 C171.26 125.38 164.31 121.07 169.3 111.48 C171.3 107.65 175.48 105.48 177.88 102.15 C180.87 97.99 179.26 97.03 179.46 92.42 C179.88 82.48 188.03 81.05 193.98 73.91 C198.14 68.93 198.43 62.74 203.69 57.55 C209.03 52.27 217.91 47.87 220.81 41.33 C219.62 53.22 225.41 72.08 212.12 81.17 C218.2 85.33 218.05 92.6 213.78 97.98 C211.74 100.55 206.4 102.27 204.96 105.03 C202.99 108.81 205.97 109.17 205.69 112.59 C205.03 120.51 182.35 129.23 173.36 137.86 C170.04 141.04 174.6 133.31 174.6 133.31 z" style="fill:#FAC0B6;" /><g opacity="0.3"><path d="M211.38 64.23 C215.15 63.45 218.19 62.33 221.04 60.94 C221.05 60.61 221.05 60.28 221.06 59.95 C218.04 61.47 215.25 62.51 211.76 63.27 C212.35 61.82 212.92 60.38 213.47 58.95 C213.97 57.68 214.46 56.42 214.97 55.16 C215.44 53.98 216 52.79 216.53 51.64 C216.98 50.66 217.45 49.65 217.86 48.67 C218.12 48.05 218.44 47.34 218.79 46.59 C219.49 45.06 220.25 43.4 220.75 41.87 C220.77 41.68 220.78 41.49 220.79 41.3 C220.2 42.63 219.37 43.86 218.37 45.03 C218.17 45.48 217.97 45.92 217.78 46.33 C217.43 47.09 217.1 47.81 216.83 48.44 C216.43 49.41 215.97 50.41 215.51 51.38 C214.97 52.54 214.42 53.73 213.94 54.94 C213.43 56.2 212.94 57.46 212.44 58.73 C211.2 61.89 209.92 65.13 208.47 68.33 C205.23 66.25 204.63 61.05 204.71 56.55 C204.35 56.87 204 57.2 203.67 57.53 C203.66 57.54 203.65 57.56 203.63 57.57 C203.67 62.14 204.52 67.19 208.07 69.2 C207.91 69.55 207.75 69.9 207.58 70.26 C206.1 73.34 204.44 76.39 202.72 79.4 C199.9 75.89 198.08 71.8 197.5 67.82 C197.25 68.39 196.99 68.95 196.71 69.5 C197.55 73.28 199.43 77.08 202.17 80.34 C200.67 82.92 199.14 85.48 197.61 87.99 C197.58 88 197.55 88.01 197.52 88.02 L197.56 88.07 C197.51 88.15 197.46 88.23 197.42 88.3 C197 89 196.57 89.71 196.14 90.42 C195.52 89.38 194.71 88.39 193.92 87.45 C193.14 86.52 192.33 85.55 191.73 84.54 C190.44 82.37 190.04 80.23 189.72 77.99 C189.4 78.26 189.07 78.52 188.75 78.77 C189.06 80.8 189.52 82.88 190.75 84.94 C191.38 86 192.21 86.99 193.01 87.95 C193.89 89 194.8 90.09 195.42 91.24 L195.72 91.13 C193.79 94.34 191.85 97.63 190.05 100.93 C189.96 101.1 189.86 101.28 189.77 101.45 C189.19 100.15 187.93 98.77 186.77 97.51 C186.02 96.7 185.32 95.94 184.93 95.33 C183.21 92.65 181.53 89.68 180.83 86.74 C180.58 87.24 180.35 87.76 180.16 88.32 C181.01 90.89 182.48 93.43 183.96 95.75 C184.39 96.42 185.11 97.21 185.88 98.04 C187.3 99.57 189.04 101.46 189.01 102.85 C186.15 108.1 183.1 113.62 180 119 C177.66 123.05 176.08 127.31 174.54 131.44 C174.42 131.76 174.3 132.09 174.18 132.41 C174.32 132.7 174.45 132.99 174.57 133.29 C174.57 133.29 174.57 134.32 174.99 133.19 C175.19 132.67 175.38 132.15 175.57 131.63 C177.09 127.53 178.66 123.3 180.97 119.31 C184.09 113.91 187.15 108.36 190.02 103.08 C190.07 103.05 190.07 103.03 190.07 102.99 C190.39 102.4 190.72 101.81 191.03 101.22 C191.66 100.05 192.32 98.89 192.99 97.72 C195.08 97.3 197.55 97.23 199.95 97.17 C201.81 97.12 203.73 97.07 205.46 96.86 C209.75 96.33 212.91 95.07 216.13 93.69 C216.26 93.33 216.37 92.97 216.46 92.6 C213.05 94.08 209.8 95.46 205.36 96.02 C203.7 96.23 201.81 96.28 199.98 96.32 C197.8 96.38 195.56 96.44 193.55 96.76 C195.14 94.01 196.78 91.29 198.39 88.63 C198.39 88.62 198.4 88.6 198.42 88.59 C199.44 88.22 200.88 88.13 202.29 88.04 C203.39 87.97 204.53 87.9 205.52 87.69 C208.07 87.15 212.26 86.26 215.29 84.36 C215.13 84.11 214.96 83.87 214.78 83.63 C212.36 85.19 208.86 86.11 205.31 86.87 C204.42 87.06 203.33 87.12 202.28 87.19 C201.18 87.26 200.07 87.33 199.07 87.54 C201.49 83.54 203.94 79.45 206.17 75.28 C206.55 75.31 206.95 75.33 207.36 75.34 C210.69 75.38 215.07 74.56 218.73 73.14 C218.89 72.77 219.05 72.4 219.19 72.02 C215.25 73.71 210.08 74.69 206.6 74.45 C207.29 73.15 207.96 71.83 208.6 70.51 C209.6 68.42 210.51 66.31 211.38 64.21 z" style="fill:white;" /></g></g><g><path d="M59.33 189.45 C56.66 187.93 53.81 186.55 52.61 183.42 C50.94 179.08 53.76 178.48 55.44 174.64 C48.73 172.36 42.9 172.37 37.96 165.86 C33.1 159.46 36.65 154.27 44.08 154.71 C45.1 154.77 37.96 150.14 36.74 149.35 C34.05 147.6 31.79 144.7 30.36 141.86 C27.76 136.71 27.94 129.58 34.9 128.49 C40.93 127.55 44.33 133.9 47.13 138.32 C48.39 140.31 49.85 142.85 50.64 145.14 C53.54 142.28 54.27 137.45 59.05 140.4 C62.38 142.45 63.83 148.37 62.67 151.91 C67.4 151.16 69.89 149.72 74.08 152.42 C76.79 154.17 79.64 157.39 81.61 160.28 C86.09 166.87 94.9 192.04 96.79 200.35 C96.79 200.35 64.92 192.63 59.34 189.46 z" style="fill:#B0B2FF;" /><path d="M95.46 195.42 L95.4 195.39 C93.22 194.19 91.11 192.78 89.05 191.31 C89.22 190.85 89.28 190.34 89.35 189.87 C89.6 188.34 90.04 186.84 90.37 185.33 C90.62 184.2 90.81 183.05 90.98 181.91 C90.74 181.25 90.5 180.59 90.26 179.93 C90.14 180.96 89.99 181.99 89.81 183.02 C89.53 184.58 89.17 186.13 88.81 187.68 C88.64 188.42 88.56 189.82 88.24 190.74 C86.52 189.5 84.81 188.23 83.11 187.02 C81.39 185.8 79.7 184.52 78.04 183.22 C78.58 182.22 78.81 181.15 79.06 180.03 C79.33 178.82 79.85 177.68 79.85 176.41 C79.85 174.52 80.37 172.59 80.56 170.71 C80.71 169.16 80.7 167.61 80.63 166.05 C80.51 163.42 80.35 160.8 80.07 158.19 C79.79 157.83 79.5 157.48 79.2 157.13 C79.48 159.59 79.61 162.07 79.72 164.54 C79.87 168.07 79.66 171.44 79.08 174.93 C78.67 177.4 78.52 180.36 77.3 182.65 C75.27 181.04 73.29 179.38 71.35 177.67 C72 175.33 72.79 173.05 73.37 170.67 C74.13 167.59 74.05 164.12 74.03 160.97 C74.02 157.96 73.81 154.97 73.35 152 C73.07 151.85 72.81 151.71 72.54 151.59 C73.02 154.44 73.13 157.39 73.18 160.24 C73.24 163.66 73.1 167.12 72.51 170.49 C72.12 172.73 71.26 174.85 70.6 177.02 C68.6 175.24 66.64 173.42 64.71 171.57 C65.59 169.95 65.63 167.71 65.78 165.96 C66.08 162.36 66.11 158.67 66.03 155.05 C66 153.8 65.92 152.56 65.8 151.32 C65.54 151.37 65.28 151.43 65.02 151.48 C65.12 152.68 65.19 153.87 65.23 155.08 C65.31 158.08 65.23 161.08 65 164.08 C64.85 166.13 65.04 168.95 64.09 170.96 C63.74 170.62 63.39 170.28 63.04 169.94 C61.43 168.36 59.83 166.76 58.26 165.13 C58.97 163.01 59.04 160.72 58.96 158.5 C58.86 155.42 59.25 152.33 59.14 149.24 C59.04 146.25 58.76 143.03 58.12 139.93 C57.75 139.76 57.4 139.64 57.08 139.58 C57.77 142.74 58.24 145.92 58.39 149.27 C58.51 151.89 58.3 154.51 58.19 157.13 C58.09 159.62 58.17 162.01 57.6 164.43 C56.51 163.28 55.43 162.11 54.4 160.91 C52.84 159.09 51.44 157.13 49.94 155.27 C49.33 154.52 48.66 153.81 47.98 153.11 C48.04 153.07 48.01 146.23 47.9 142.94 C47.86 141.87 47.88 140.72 47.89 139.56 C47.64 139.14 47.39 138.74 47.15 138.35 C47.03 138.15 46.9 137.95 46.77 137.74 C46.88 139.27 47.06 140.8 47.12 142.25 C47.25 145.69 47.1 149.28 47.6 152.7 C46.72 151.77 45.86 150.83 45.18 149.78 C44.31 148.42 43.48 147.04 42.63 145.67 C43.48 142.26 43.02 138.32 42.89 134.84 C42.85 133.9 42.82 132.96 42.78 132.02 C42.5 131.71 42.22 131.41 41.93 131.12 C42.03 132.6 42.04 134.1 42.1 135.6 C42.24 138.64 42.41 141.81 42.13 144.86 C41 143.06 39.83 141.28 38.49 139.61 C38.46 139.57 38.4 139.46 38.4 139.44 C38.39 136.94 38.29 134.43 38.24 131.93 C38.22 130.93 38.27 129.85 38.26 128.77 C37.94 128.67 37.61 128.59 37.27 128.53 C37.31 129.69 37.43 130.86 37.45 131.96 C37.5 134.14 37.52 136.32 37.64 138.5 C36.62 137.14 35.67 135.74 34.66 134.38 C33.61 132.97 32.47 131.42 31.59 129.8 C31.44 129.9 31.31 130.02 31.18 130.13 C31.67 131.08 32.28 131.99 32.83 132.86 C34.14 134.9 35.62 136.88 37.06 138.83 C37.39 139.28 37.72 139.73 38.04 140.18 C37.21 139.9 30.6 138.29 29.14 138.3 C29.14 138.39 29.16 138.48 29.18 138.56 C31.1 139.13 38.57 141.12 38.66 141.05 C40.16 143.16 41.58 145.29 42.95 147.49 C41.57 147.24 40.22 147.07 38.81 147.03 C37 146.97 35.25 146.54 33.45 146.44 C33.53 146.53 33.61 146.62 33.69 146.71 C35.15 146.92 36.58 147.27 38.05 147.43 C39.01 147.53 39.98 147.54 40.95 147.64 C41.76 147.73 42.37 147.98 43.18 147.87 C43.54 148.45 43.9 149.03 44.25 149.63 C45.26 151.34 46.62 152.6 47.96 154.05 C49.76 156 51.29 158.22 52.92 160.31 C53.42 160.94 53.94 161.56 54.47 162.16 C53.35 162.37 52.26 162.2 51.12 162.01 C49.26 161.69 47.39 161.45 45.54 161.07 C42.6 160.46 39.14 159.55 36.32 158 C36.26 158.12 36.2 158.25 36.14 158.37 C39.33 160.32 43.4 161.33 46.84 162.01 C47.7 162.18 53.77 163.77 54.94 162.69 C55.76 163.6 56.61 164.49 57.47 165.37 C57.5 165.45 57.56 165.51 57.64 165.54 C58.46 166.38 59.29 167.22 60.11 168.06 C55.88 168.3 51.59 168.53 47.39 167.86 C43.92 167.3 40.62 166.34 37.39 165.07 C37.57 165.35 37.77 165.63 37.98 165.92 C38.07 166.04 38.16 166.14 38.26 166.26 C45.24 169.35 53.36 169.36 60.82 168.99 C60.87 168.99 60.92 168.97 60.96 168.95 C61.32 169.32 61.68 169.69 62.03 170.07 C62.57 170.66 63.15 171.21 63.74 171.75 C63.71 172 63.99 172.23 64.23 172.21 C65.05 172.96 65.88 173.69 66.68 174.45 C68.07 175.78 69.4 177.14 70.82 178.43 C70.31 178.41 67.65 179.34 67.29 179.42 C64.87 179.94 62.48 180.49 60.02 180.77 C57.68 181.03 55.27 181.1 52.91 181.01 C52.65 181.01 52.39 180.98 52.13 180.97 C52.13 181.16 52.13 181.36 52.15 181.57 C52.38 181.6 52.61 181.63 52.85 181.66 C55 181.88 57.2 181.76 59.35 181.63 C61.44 181.5 63.49 181.12 65.54 180.68 C66.55 180.46 67.63 180.3 68.61 179.95 C69.54 179.62 70.28 179.14 71.31 179.17 C71.4 179.17 71.48 179.13 71.55 179.08 C71.6 179.12 71.64 179.16 71.68 179.2 C73.32 180.59 74.99 181.96 76.69 183.3 C74.94 183.66 73.37 184.85 71.76 185.58 C69.26 186.72 66.63 187.31 63.9 187.6 C61.56 187.85 59.18 187.96 56.82 188.05 C57.28 188.33 57.74 188.61 58.21 188.88 C59.87 188.82 61.54 188.68 63.17 188.58 C65.48 188.45 67.76 188.04 69.95 187.32 C70.94 187 71.9 186.58 72.84 186.15 C74.13 185.55 75.53 184.47 76.95 184.24 C77.18 184.2 77.32 184.04 77.37 183.86 C79.19 185.28 81.04 186.66 82.9 188 C82.19 188.63 81.52 189.33 80.78 189.94 C79.38 191.09 77.83 191.9 76.25 192.78 C75.43 193.24 74.44 193.8 73.39 194.29 C73.77 194.4 74.15 194.51 74.54 194.61 C74.79 194.5 75.03 194.4 75.27 194.3 C77.34 193.43 79.54 192.12 81.27 190.71 C81.99 190.13 83.16 189.45 83.66 188.54 C85.06 189.54 86.46 190.57 87.87 191.57 C87.75 191.99 88.25 192.4 88.62 192.1 C90.5 193.43 92.4 194.73 94.37 195.9 C94.86 196.19 95.35 196.47 95.84 196.74 C95.72 196.34 95.6 195.92 95.48 195.49 z" style="fill:white;" /></g><path d="M83.81 147 C85.29 145.31 95.78 133.1 90.02 133.3 C84.23 133.51 83.69 145.47 83.62 146.83 C81.68 144.97 79.87 142.84 78.16 140.51 C80.43 138.35 90.1 128.79 85.56 126.94 C81.15 125.14 78.51 136.78 77.86 140.08 C76.22 137.81 74.69 135.36 73.26 132.8 C75.52 130.94 87.78 120.6 83.38 118.55 C77.73 115.92 73.87 129.34 73.06 132.45 C71.68 129.95 70.39 127.37 69.21 124.75 C70.87 123.67 82.27 116.05 79.66 113.32 C75.82 109.31 70.05 122.42 69.13 124.58 C68.22 122.56 67.37 120.53 66.57 118.51 C68.33 117 78.72 107.81 73.95 104.98 C69.35 102.26 66.91 115.12 66.41 118.11 C65.89 116.79 65.4 115.48 64.93 114.18 L64.97 114.18 L64.92 114.14 C64.24 112.26 63.61 110.42 63.03 108.64 C64.66 107.25 76 97.34 71.13 94.02 C66.41 90.8 63.45 105.39 62.92 108.3 C61.63 104.32 60.59 100.67 59.79 97.61 C60.97 96.3 66.58 89.69 63.63 86.13 C60.82 82.73 59.84 93.71 59.62 96.97 C59.01 94.63 58.55 92.68 58.23 91.27 C58.17 87.24 57.61 79.79 54.2 80.41 C50.01 81.18 56.6 91.37 57.96 93.4 C58.18 94.33 58.44 95.39 58.74 96.56 C56.5 93.99 50.48 87.74 47.97 91.53 C45.24 95.66 56.23 97.21 58.99 97.53 C59.62 99.91 60.39 102.67 61.31 105.68 C58.53 103.41 46.12 93.61 45.43 98.96 C44.73 104.41 58.79 105.88 61.44 106.11 C62.16 108.42 62.96 110.87 63.86 113.38 C59.91 110.59 46.46 101.61 44.55 107.04 C42.56 112.69 60.09 113.92 64.13 114.13 C65.06 116.69 66.08 119.32 67.19 121.95 C63.26 120.12 43.87 111.42 43.46 117.69 C43.04 124.07 63.74 122.63 67.35 122.33 C68.05 123.98 68.8 125.62 69.58 127.25 C65.95 126.15 50.29 121.76 49.3 127.41 C48.29 133.2 66.32 128.57 69.77 127.64 C71 130.19 72.33 132.7 73.75 135.09 C69.73 134.48 51.08 131.99 50.64 137.78 C50.19 143.68 70.29 136.73 73.95 135.41 C74.84 136.89 75.76 138.33 76.72 139.71 C73.98 139.62 56.87 139.3 59.14 145.07 C61.51 151.11 76.52 141.67 77.62 140.97 C81.97 146.89 87.05 151.59 92.91 153.75 L93.17 153.06 C89.79 151.81 86.67 149.69 83.8 146.97 z" style="fill:#4B60A4;" /><g><path d="M188.91 207.4 C188.91 209.47 187.25 211.15 185.21 211.15 L77.82 211.15 C75.77 211.15 74.12 209.47 74.12 207.4 L74.12 26.15 C74.12 24.08 75.78 22.4 77.82 22.4 L185.21 22.4 C187.25 22.4 188.91 24.08 188.91 26.15 L188.91 207.4" style="fill:#0B1238;" /><rect x="125.62" y="30.73" width="15.59" height="3.04" style="fill:#596A83;" /><path d="M185.28 22.74 L77.89 22.74 C75.84 22.74 74.19 24.42 74.19 26.49 L74.19 172.5 C74.19 172.5 76.26 169.75 79.85 165 L79.85 45.71 L79.85 45.71 C79.85 44.16 81.31 42.9 83.11 42.9 L171.16 42.9 C180.11 30.68 185.74 22.75 185.27 22.75 L185.27 22.75" style="fill:#3C4160;" /><path d="M181.06 181.58 C181.06 183.13 179.6 184.39 177.8 184.39 L83.11 184.39 C81.31 184.39 79.85 183.13 79.85 181.58 L79.85 45.71 C79.85 44.16 81.31 42.9 83.11 42.9 L177.8 42.9 C179.6 42.9 181.06 44.16 181.06 45.71 L181.06 181.58" style="fill:white;" /><path d="M176.37 43.36 L171.17 42.9 L83.11 42.9 C81.31 42.9 79.85 44.16 79.85 45.71 L79.85 181.58 C79.85 183.13 81.31 184.39 83.11 184.39 L177.8 184.39 C179.6 184.39 181.06 183.13 181.06 181.58 L181.06 45.71 C181.06 44.16 179.08 44.32 177.28 44.32" style="fill:#D7E3EF;" /><path d="M113.55 173.38 C113.55 173.38 121.38 181.21 125.34 184.39 L128.69 184.39 C134.84 177.37 163.4 144.31 163.4 144.31 L153 133.7 L113.54 173.37 z" style="fill:#EEC7CC;" /><path d="M181.06 122.91 L164.55 141.53 L155.74 132.71 L181.05 107.44 L181.05 102.31 L153.17 130.14 L126.97 103.9 L165.53 65.41 L181.05 80.95 L181.05 76.1 L167.96 62.99 L181.05 49.92 L181.05 45.7 C181.05 44.89 180.65 44.17 180.01 43.65 L164.31 59.33 L147.9 42.89 L143.06 42.89 L161.89 61.75 L123.34 100.24 L99.67 76.53 L133.37 42.88 L127.94 42.88 L96.96 73.81 L79.84 56.67 L79.84 61.52 L120.91 102.66 L82.36 141.15 L79.85 138.63 L79.85 143.48 L79.94 143.57 L79.85 143.66 L79.85 150.96 L83.59 147.22 L109.79 173.46 L98.86 184.37 L104 184.37 L112.36 176.03 L120.69 184.37 L125.53 184.37 L114.78 173.61 L153.33 135.12 L162.28 144.09 L126.57 184.38 L131.42 184.38 L164.84 146.67 L181.05 162.91 L181.05 158.06 L167.11 144.1 L181.05 128.38 L181.05 122.91 z M112.21 171.06 L86.01 144.82 L124.56 106.33 L150.76 132.57 L112.21 171.06 z" style="fill:white;" /><path d="M140.61 197.9 C140.61 202.89 136.56 206.94 131.56 206.94 C126.56 206.94 122.51 202.89 122.51 197.9 C122.51 192.91 126.56 188.85 131.56 188.85 C136.56 188.85 140.61 192.9 140.61 197.9 z" style="fill:#3D4166;" /><path d="M138.44 197.9 C138.44 201.7 135.36 204.77 131.57 204.77 C127.78 204.77 124.7 201.69 124.7 197.9 C124.7 194.11 127.78 191.02 131.57 191.02 C135.36 191.02 138.44 194.1 138.44 197.9 z" style="fill:#0B1238;" /><path d="M171.03 49.38 L170.45 43.91 L171.26 42.78 L82.82 42.78 C81.02 42.78 79.56 44.04 79.56 45.59 L79.56 81.1 L80.04 80.84 L180.78 80.84 L171.04 49.38 z" style="fill:#3C4160;" /><path d="M178.18 42.67 C179.98 42.67 181.48 44.16 181.48 45.71 L181.48 80.96 L80.26 80.96 L80.26 45.71 C80.26 44.16 81.72 42.9 83.52 42.9 L171.16 42.9 L171.45 42.67 L178.18 42.67 z" style="fill:#0B1238;" /></g><g><path d="M177.8 42.9 C179.6 42.9 181.07 44.16 181.07 45.71 L181.07 80.96 L79.85 80.96 L79.85 45.71 C79.85 44.16 81.31 42.9 83.11 42.9 L177.8 42.9" style="fill:#2A2B7C;" /><path d="M156.22 62.23 L155.75 63.26 L154.64 63.46 L155.47 64.23 L155.32 65.35 L156.31 64.79 L157.33 65.29 L157.1 64.18 L157.89 63.36 L156.76 63.23 L156.22 62.23" style="fill:#8B8DCB;" /><path d="M160.39 62.23 L159.92 63.26 L158.8 63.46 L159.64 64.23 L159.48 65.35 L160.47 64.79 L161.49 65.29 L161.27 64.18 L162.05 63.36 L160.92 63.23 L160.39 62.23" style="fill:#8B8DCB;" /><path d="M164.55 62.23 L164.08 63.26 L162.96 63.46 L163.8 64.23 L163.65 65.35 L164.64 64.79 L165.66 65.29 L165.43 64.18 L166.22 63.36 L165.09 63.23 L164.55 62.23" style="fill:#8B8DCB;" /><path d="M168.72 62.23 L168.25 63.26 L167.13 63.46 L167.97 64.23 L167.81 65.35 L168.8 64.79 L169.82 65.29 L169.6 64.18 L170.38 63.36 L169.25 63.23 L168.72 62.23" style="fill:#8B8DCB;" /><path d="M173.05 62.23 L172.58 63.26 L171.46 63.46 L172.3 64.23 L172.14 65.35 L173.13 64.79 L174.15 65.29 L173.92 64.18 L174.71 63.36 L173.58 63.23 L173.05 62.23" style="fill:#8B8DCB;" /></g><g><path d="M149.14 57.03 C149.14 57.03 144.57 57.67 140.42 55.43 C134.54 52.25 127.75 50.75 119.23 51.46 C110.71 52.17 104.12 56.43 103.31 56.94 C103.31 56.94 92.26 58.06 90.13 61.3 C88 64.54 89.01 68.4 89.01 68.4 C89.01 68.4 94.69 69.92 104.02 69.62 C113.35 69.32 129.27 69.02 133.28 69.16 C137.29 69.31 145.95 68.61 148.19 68.04 C150.42 67.48 150.98 64.24 149.46 62.31 C149.46 62.31 148.45 59.27 149.16 57.04 z" style="fill:#66A3F6;" /><path d="M139.89 62.95 C136.81 62.95 134.31 65.45 134.31 68.53 C134.31 68.74 134.32 68.96 134.35 69.16 C137.49 69.16 142.29 68.84 145.47 68.46 C145.43 65.41 142.95 62.95 139.9 62.95 z" style="fill:#2E90EC;" /><path d="M106.24 68.86 C106.24 65.79 103.75 63.31 100.69 63.31 C97.63 63.31 95.14 65.8 95.14 68.86 C95.14 69.03 95.14 69.19 95.16 69.35 C97.52 69.57 100.51 69.72 104.01 69.6 C104.71 69.58 105.44 69.55 106.2 69.53 C106.23 69.31 106.24 69.09 106.24 68.86 z" style="fill:#2E90EC;" /><path d="M90.31 62.01 C91.78 59.85 93.52 59.51 98.14 58.49 C102.76 57.48 104.63 57.27 105.91 56.6 C107.18 55.92 110.3 52.55 118.26 51.97 C126.23 51.39 129.62 51.85 133.87 53.32 C138.12 54.79 139.11 56.53 142.12 57.14 C145.13 57.75 148.97 57.56 148.97 57.56 C148.97 57.56 148.73 59.45 148.97 59.93 C149.24 59.93 141.78 60.46 136.56 60.66 C131.34 60.86 116.94 61 110.65 61.27 C104.36 61.54 99.3 62.59 96.82 62.89 C94.34 63.19 88.82 64.17 90.29 62.01 z" style="fill:#89BEFF;" /><path d="M105.88 68.81 C105.88 71.67 103.56 73.98 100.71 73.98 C97.86 73.98 95.54 71.66 95.54 68.81 C95.54 65.96 97.85 63.64 100.71 63.64 C103.57 63.64 105.88 65.96 105.88 68.81 z" style="fill:#3D4166;" /><path d="M107.96 68.68 C107.79 68.68 107.66 68.68 107.59 68.68 C106.66 68.65 106.12 68.55 105.79 66.8 C105.42 64.85 104.77 60.2 106.77 58.96 C108.78 57.73 138.84 57.41 140.12 57.4 C140.14 57.4 140.18 57.42 140.18 57.42 C140.83 57.83 141.2 58.26 141.28 58.71 C141.34 59.03 141.24 59.35 140.99 59.67 C140.08 60.82 139.31 61.45 137.76 62.61 C135.99 63.94 134.82 65.41 134.46 66.77 C134.05 68.29 133.62 68.39 132.3 68.47 C131.11 68.54 121.45 68.55 119.52 68.55 C119.2 68.55 117.72 68.57 115.85 68.59 C112.89 68.63 109.22 68.68 107.96 68.68 z M140.1 57.53 C139.19 57.53 108.8 57.87 106.84 59.07 C104.9 60.26 105.55 64.85 105.92 66.77 C106.24 68.44 106.69 68.53 107.6 68.55 C107.67 68.55 107.8 68.55 107.97 68.55 C109.23 68.55 112.91 68.5 115.86 68.46 C117.73 68.44 119.21 68.42 119.53 68.42 C121.45 68.42 131.11 68.42 132.3 68.34 C133.52 68.26 133.94 68.24 134.34 66.73 C134.71 65.35 135.9 63.85 137.69 62.51 C139.23 61.35 139.99 60.73 140.89 59.59 C141.11 59.31 141.2 59.02 141.15 58.73 C141.08 58.32 140.73 57.91 140.11 57.53 L140.11 57.53 z" style="fill:#2A2B7C;" /><path d="M107.33 58.53 C108.72 57.42 112.13 54.72 113.86 53.7 C115.67 52.63 120.08 52.28 123.47 52.17 C123.61 52.17 123.75 52.17 123.89 52.17 C126.76 52.17 128.99 52.44 131.34 53.07 C133.95 53.84 138.41 56.09 139.97 57.27 L140.47 57.65 L106.79 58.95 L107.32 58.52 z" style="fill:#0B1238;" /><path d="M107.95 58.53 C109.49 57.3 112.5 54.95 114.08 54.02 C115.43 53.22 118.77 52.7 123.48 52.55 C123.62 52.55 123.75 52.55 123.89 52.55 C126.72 52.55 128.91 52.82 131.22 53.44 C133.61 54.15 137.59 56.12 139.36 57.32 L107.96 58.53 z" style="fill:#3D4166;" /><g><path d="M138.34 60.38 C138.34 60.68 138.08 60.91 137.77 60.91 L137.31 60.91 C136.99 60.91 136.74 60.67 136.74 60.38 L136.74 60.08 C136.74 59.79 137 59.55 137.31 59.55 L137.77 59.55 C138.09 59.55 138.34 59.79 138.34 60.08 L138.34 60.38 z" style="fill:#3D4166;" /><path d="M139.37 60.18 C139.37 60.3 139.31 60.47 139.18 60.47 L136.15 60.59 C136.02 60.59 135.91 60.51 135.9 60.39 C135.9 60.27 135.99 60.17 136.12 60.16 L139.09 59.84 C139.22 59.84 139.35 60.06 139.36 60.18 L139.36 60.18 z" style="fill:#66A3F6;" /></g><g><path d="M119.4 60.79 C119.4 61.08 119.14 61.32 118.83 61.32 L118.37 61.32 C118.05 61.32 117.8 61.08 117.8 60.79 L117.8 60.49 C117.8 60.19 118.06 59.96 118.37 59.96 L118.83 59.96 C119.15 59.96 119.4 60.2 119.4 60.49 L119.4 60.79 z" style="fill:#3D4166;" /><path d="M120.43 60.6 C120.43 60.72 120.37 60.89 120.24 60.9 L117.21 61.02 C117.08 61.02 116.97 60.94 116.96 60.82 C116.96 60.7 117.05 60.6 117.18 60.59 L120.15 60.27 C120.28 60.27 120.41 60.49 120.42 60.61 L120.42 60.61 z" style="fill:#66A3F6;" /></g><path d="M123.05 52.16 C122.54 52.19 122.03 52.23 121.53 52.27 L120.23 58.43 C120.23 58.43 122.76 58.34 122.76 58.34 L123.05 52.16 z" style="fill:#0B1238;" /><path d="M121.56 68.54 C121.56 68.54 121.5 68.52 121.5 68.48 C121.35 67.2 121.01 64.07 120.96 62.79 C120.92 61.49 121.25 59.11 121.49 57.38 C121.55 56.95 121.6 56.57 121.64 56.27 C121.8 55.04 122.11 52.84 122.2 52.2 C122.2 52.16 122.24 52.14 122.27 52.14 C122.3 52.14 122.33 52.18 122.32 52.21 C122.23 52.85 121.92 55.05 121.76 56.28 C121.72 56.58 121.67 56.96 121.61 57.39 C121.38 59.02 121.03 61.49 121.08 62.78 C121.12 64.05 121.47 67.18 121.62 68.46 C121.62 68.5 121.6 68.53 121.56 68.53 L121.56 68.53 z" style="fill:#2A2B7C;" /><path d="M103.22 56.93 C104.45 57.04 105.81 57.11 105.81 57.11 L113.11 52.92 L112.72 52.69 C107.52 54.22 103.89 56.56 103.3 56.93 C103.3 56.93 103.27 56.93 103.22 56.93 z" style="fill:#3C5670;" /><path d="M88.89 66.8 C88.86 67.45 88.89 67.94 88.92 68.13 C89.9 68.06 91.69 67.74 91.77 67.14 C91.86 66.48 89.51 66.73 88.89 66.81 z" style="fill:#3C5670;" /><rect x="101.95" y="61" width="1.35" height="0.88" style="fill:#FA8795;" /><path d="M148.9 58.34 C148.9 58.34 148.82 58.34 148.78 58.34 C148.78 58.34 144.64 59.61 144.65 60.84 C144.65 62.07 147.68 61.72 149.21 61.47 C149.03 60.7 148.82 59.51 148.9 58.34 z" style="fill:url(#c);" /><path d="M149.19 61.34 C149.02 60.6 148.85 59.53 148.9 58.46 C148.02 58.73 145 59.73 145.01 60.7 C145.01 61.75 147.59 61.55 149.19 61.34 z" style="fill:#FA989C;" /><path d="M104.17 68.83 C104.17 70.73 102.63 72.28 100.72 72.28 C98.81 72.28 97.27 70.74 97.27 68.83 C97.27 66.92 98.81 65.38 100.72 65.38 C102.63 65.38 104.17 66.92 104.17 68.83 z" style="fill:#E6DFEA;" /><path d="M88.96 64.14 L96.73 63.08 L89.16 63.35 C89.08 63.61 89.01 63.88 88.96 64.14 z" style="fill:#2E90EC;" /><path d="M90.2 61.11 C89.71 61.86 89.39 62.64 89.18 63.39 C90.66 63.53 93.64 63.32 93.64 63.32 C94.01 62.79 95.72 61.5 95.54 60.62 C95.38 59.83 91.1 60.87 90.19 61.11 z" style="fill:url(#d);" /><path d="M90.26 61.19 C89.79 61.89 89.52 62.59 89.32 63.29 C90.75 63.42 93.44 63.23 93.44 63.23 C93.8 62.74 95.52 61.49 95.34 60.67 C95.19 60 91.14 60.97 90.26 61.19 z" style="fill:white;" /><path d="M89.47 63.22 C90.09 63.28 90.95 63.27 91.72 63.25 C92.33 62.65 93.44 61.68 93.3 61.01 C93.23 60.68 92.22 60.74 91.1 60.92 C90.8 60.99 90.56 61.05 90.42 61.09 C89.95 61.79 89.68 62.51 89.48 63.22 z" style="fill:#CECECE;" /><path d="M89.2 63.29 C89.82 63.35 90.68 63.34 91.45 63.32 C92.06 62.72 93.17 61.78 93.03 61.11 C92.96 60.78 91.95 60.85 90.83 61.03 C90.53 61.1 90.29 61.16 90.14 61.19 C89.67 61.89 89.4 62.59 89.2 63.29 z" style="fill:#E6DFEA;" /><path d="M135.37 57.86 L134.66 57.9 L133.7 53.94 L134.51 54.31 L135.37 57.86 z" style="fill:#0B1238;" /><path d="M106.97 58.96 C106.97 58.96 106.93 58.96 106.92 58.94 C106.48 58.43 105.77 57.2 105.74 57.15 C105.72 57.12 105.74 57.08 105.76 57.06 C105.79 57.04 105.83 57.06 105.85 57.08 C105.85 57.09 106.58 58.36 107.01 58.85 C107.03 58.88 107.03 58.92 107.01 58.94 C107 58.95 106.98 58.96 106.97 58.96 z" /><g><path d="M97.96 68.24 L99.78 68.45 C99.84 68.45 99.9 68.44 99.92 68.39 C99.95 68.35 99.94 68.29 99.9 68.24 L98.81 66.77 C98.81 66.77 98.78 66.74 98.77 66.73 C98.35 67.12 98.04 67.64 97.91 68.22 C97.93 68.22 97.95 68.23 97.97 68.24 z" style="fill:#0B1238;" /><path d="M103.48 69.47 L101.66 69.26 C101.6 69.26 101.54 69.28 101.52 69.32 C101.49 69.36 101.5 69.42 101.54 69.47 L102.63 70.94 C102.63 70.94 102.66 70.97 102.67 70.98 C103.09 70.59 103.4 70.07 103.53 69.49 C103.51 69.49 103.49 69.48 103.47 69.47 z" style="fill:#0B1238;" /><path d="M98.81 70.94 L99.9 69.47 C99.94 69.42 99.95 69.36 99.92 69.32 C99.89 69.28 99.84 69.25 99.78 69.26 L97.96 69.47 C97.96 69.47 97.92 69.47 97.9 69.49 C98.03 70.07 98.34 70.59 98.76 70.98 C98.78 70.97 98.79 70.95 98.8 70.94 z" style="fill:#0B1238;" /><path d="M102.64 66.77 L101.55 68.24 C101.51 68.29 101.5 68.35 101.53 68.39 C101.56 68.43 101.61 68.46 101.67 68.45 L103.49 68.24 C103.49 68.24 103.53 68.24 103.55 68.22 C103.42 67.64 103.11 67.12 102.69 66.73 C102.67 66.74 102.66 66.76 102.65 66.77 z" style="fill:#0B1238;" /><path d="M101.58 71.62 C101.58 71.62 101.58 71.58 101.56 71.56 L100.84 69.88 C100.81 69.82 100.77 69.78 100.72 69.78 C100.67 69.78 100.62 69.82 100.6 69.88 L99.88 71.56 C99.88 71.56 99.87 71.6 99.86 71.62 C100.13 71.7 100.42 71.75 100.72 71.75 C101.02 71.75 101.31 71.7 101.58 71.62 z" style="fill:#0B1238;" /><path d="M99.86 66.1 C99.86 66.1 99.86 66.14 99.88 66.16 L100.6 67.84 C100.63 67.9 100.67 67.94 100.72 67.94 C100.77 67.94 100.82 67.9 100.84 67.84 L101.56 66.16 C101.56 66.16 101.57 66.12 101.58 66.1 C101.31 66.02 101.02 65.97 100.72 65.97 C100.42 65.97 100.13 66.02 99.86 66.1 z" style="fill:#0B1238;" /></g><path d="M144.99 68.7 C144.99 71.56 142.68 73.87 139.82 73.87 C136.96 73.87 134.65 71.56 134.65 68.7 C134.65 65.84 136.96 63.53 139.82 63.53 C142.68 63.53 144.99 65.84 144.99 68.7 z" style="fill:#3D4166;" /><path d="M143.27 68.73 C143.27 70.63 141.73 72.18 139.82 72.18 C137.91 72.18 136.37 70.64 136.37 68.73 C136.37 66.82 137.91 65.28 139.82 65.28 C141.73 65.28 143.27 66.82 143.27 68.73 z" style="fill:#E6DFEA;" /><g><path d="M137.07 68.13 L138.89 68.34 C138.95 68.34 139.01 68.32 139.03 68.28 C139.06 68.24 139.05 68.18 139.01 68.13 L137.92 66.66 C137.92 66.66 137.89 66.63 137.88 66.62 C137.45 67.01 137.15 67.53 137.02 68.11 C137.04 68.11 137.06 68.12 137.08 68.13 z" style="fill:#0B1238;" /><path d="M142.59 69.37 L140.78 69.16 C140.72 69.16 140.66 69.18 140.64 69.22 C140.61 69.26 140.62 69.32 140.66 69.37 L141.75 70.84 C141.75 70.84 141.78 70.87 141.79 70.88 C142.22 70.49 142.52 69.97 142.65 69.39 C142.63 69.39 142.61 69.38 142.59 69.37 z" style="fill:#0B1238;" /><path d="M137.91 70.84 L139 69.37 C139.04 69.32 139.05 69.26 139.02 69.22 C139 69.18 138.94 69.15 138.88 69.16 L137.06 69.37 C137.06 69.37 137.02 69.37 137 69.39 C137.13 69.97 137.44 70.49 137.86 70.88 C137.88 70.87 137.89 70.85 137.9 70.84 z" style="fill:#0B1238;" /><path d="M141.75 66.67 L140.66 68.14 C140.62 68.19 140.61 68.25 140.64 68.29 C140.66 68.33 140.72 68.36 140.78 68.35 L142.59 68.14 C142.59 68.14 142.63 68.14 142.65 68.12 C142.52 67.54 142.21 67.02 141.79 66.63 C141.77 66.64 141.76 66.66 141.75 66.67 z" style="fill:#0B1238;" /><path d="M140.69 71.51 C140.69 71.51 140.69 71.47 140.67 71.45 L139.95 69.77 C139.92 69.71 139.88 69.68 139.83 69.68 C139.78 69.68 139.73 69.72 139.71 69.77 L138.99 71.45 C138.99 71.45 138.98 71.49 138.97 71.51 C139.24 71.59 139.53 71.64 139.83 71.64 C140.13 71.64 140.42 71.59 140.69 71.51 z" style="fill:#0B1238;" /><path d="M138.97 65.99 C138.97 65.99 138.97 66.03 138.99 66.05 L139.71 67.73 C139.73 67.79 139.78 67.82 139.83 67.82 C139.88 67.82 139.93 67.78 139.95 67.73 L140.67 66.05 C140.67 66.05 140.68 66.01 140.69 65.99 C140.42 65.91 140.13 65.86 139.83 65.86 C139.53 65.86 139.24 65.91 138.97 65.99 z" style="fill:#0B1238;" /></g><path d="M108.73 58.28 C108.73 58.28 108.66 58.9 108.46 59.08 C108.26 59.26 108.83 59.42 109.17 59.38 C109.51 59.33 108.88 58.81 109.15 58.37 L108.73 58.28 z" style="fill:#66A3F6;" /><path d="M108.74 57.05 C108.74 57.05 107.6 57.19 107.6 57.69 C107.6 58.19 109.25 58.4 109.52 58.38 C109.79 58.36 109.79 56.99 109.36 56.99 C108.93 56.99 108.73 57.06 108.73 57.06 z" style="fill:#66A3F6;" /></g><path d="M205.33 227.63 C204.44 218.78 202.73 209.54 203.64 200.57 C203.89 198.12 205.97 187.17 209.92 189.69 C213.09 191.72 211 199.12 210.98 202.2 C210.92 210.48 208.87 219.99 206.61 227.65 L205.32 227.65 z" style="fill:#7AB6F6;" /><path d="M205.2 229.1 L205.25 228.73 C205.58 226.19 206.34 223.53 207.09 220.96 C207.4 219.87 207.73 218.74 208.01 217.66 C208.1 217.29 208.21 216.72 208.33 216.06 C208.89 212.95 209.74 208.24 212.21 208.24 C212.54 208.24 212.89 208.33 213.24 208.5 C216.73 210.22 214.86 216.83 213.17 221.15 C213.67 220.89 214.16 220.75 214.62 220.75 C215.28 220.75 215.84 221.05 216.15 221.57 C216.6 222.33 216.51 223.43 215.88 224.59 C214.94 226.34 213.02 227.24 211.33 228.03 L210.94 228.2 L205.2 229.11 z M212.21 208.79 C210.21 208.79 209.34 213.58 208.88 216.15 C208.76 216.82 208.65 217.41 208.55 217.79 C208.27 218.88 207.94 220.01 207.63 221.11 C206.93 223.53 206.21 226.04 205.86 228.42 L210.82 227.64 L211.1 227.51 C212.79 226.72 214.54 225.9 215.39 224.32 C215.91 223.35 216.01 222.43 215.67 221.86 C215.46 221.51 215.09 221.31 214.62 221.31 C214.23 221.31 213.58 221.45 212.75 222.1 L211.91 222.76 L212.32 221.77 C213.66 218.49 216.43 210.69 212.99 209 C212.71 208.86 212.45 208.8 212.21 208.8 z" style="fill:#2A2B7C;" /><path d="M206.38 229.22 C207.62 223.52 204.8 214.27 202.55 208.79 C201.81 207 197.81 201.06 195.29 202.28 C192.89 203.44 196.22 209.76 197.14 211.23 C196.48 210.38 195.1 209.64 193.74 209.66 C191.27 209.7 191.8 210.18 192.04 212.2 C192.42 215.33 194.79 217.07 196.96 218.92 C195.34 218.31 192.78 218.42 192.86 220.78 C192.95 223.14 206.37 229.22 206.37 229.22 z" style="fill:#2A2B7C;" /><g><path d="M75.41 157.64 C75.27 160.22 74.46 165.82 73.47 166.53 C72.48 167.24 73.47 165.21 73.17 163.17 C73.13 162.92 71.08 169.13 70.79 169.72 C70.5 170.31 67.74 169.29 67.52 168.52 C66.9 166.37 69.62 159.38 71.5 157.5 L75.41 157.65 z" style="fill:#BA6B4F;" /><path d="M85.4 114.63 C85.4 114.63 80.41 113.72 78.19 124.65 C75.97 135.58 70.42 159.29 70.42 159.29 C70.42 159.29 76.05 160.27 75.17 160.31 C74.29 160.34 85.33 134.01 85.33 134.01 C85.33 134.01 91.05 117.33 85.4 114.64 z" style="fill:#FA989C;" /><g><path d="M102.85 93.83 C100.44 90.52 96.84 88.05 93.24 89.1 C93.24 89.1 88.51 92.34 93.62 102.85 L90.07 103.03 C95.22 106.24 91 115.35 88.89 119.81 C92.86 119.11 97.18 118.19 101.2 118.65 C101.29 115.5 100.98 111.66 101.03 108.26 C103.3 107.36 105.32 105.12 105.43 103.15 C105.79 96.19 105.25 97.14 102.85 93.83 z" style="fill:#BA6B4F;" /><path d="M91.92 228 C92.04 224.8 93.21 221.16 92.96 218.12 C88.84 217.28 87.97 222.41 88.21 225.37 C88.27 226.11 89.29 233.18 88.69 233.39 C91.88 232.69 96.36 230.38 98.4 227.81 C96.7 225.82 93.75 226.9 91.92 227.99 z" style="fill:#BA6B4F;" /><g><path d="M93.07 227.36 C93.07 227.36 92.92 227.47 92.83 227.53 C92.83 227.53 92.93 227.43 93.07 227.36 z" style="fill:#2E3054;" /><path d="M88.21 230.82 C88.21 230.82 94.37 229.16 93.97 227.96 C93.73 227.24 93.38 227.23 93.13 227.34 C94.87 226.59 96.97 226.26 98.3 227.82 C96.27 230.38 91.28 233.04 88.1 233.74 C88.07 233.4 87.98 233.18 87.86 232.43 L88.21 230.82 z" style="fill:#2E3054;" /></g><path d="M107.22 219.14 C101.14 219.59 106.47 231.95 104.85 232.35 C108.02 231.56 112.44 229.14 114.41 226.53 C112.65 224.58 109.74 225.73 107.94 226.88 C108.26 226.67 108.58 220.04 108.45 219.2 C108 219.13 107.59 219.12 107.22 219.14 z" style="fill:#BA6B4F;" /><path d="M106.57 154.27 L114.5 191.56 L109.66 224.36 L102.35 225.58 L104.51 193.62 L95.7 175.12 C95.7 175.12 97.01 185.71 96.5 191.86 C95.99 198.02 94.18 222.89 94.23 224.15 C94.32 226.27 87.79 226.31 87.5 224.86 C87.33 223.99 84.01 199.6 83.83 190.73 C83.65 181.86 81.56 166.38 85.71 156.03 C85.71 156.03 103.01 156.25 106.56 154.27 z" style="fill:#474966;" /><g><path d="M109.07 226.2 C109.07 226.2 108.92 226.31 108.83 226.38 C108.83 226.38 108.93 226.28 109.07 226.2 z" style="fill:#2E3054;" /><path d="M104.3 229.79 C104.3 229.79 110.42 227.97 109.99 226.78 C109.73 226.07 109.38 226.07 109.14 226.18 C110.86 225.38 112.95 225 114.32 226.53 C112.36 229.14 107.44 231.93 104.27 232.71 C104.23 232.37 104.13 232.15 104 231.41 L104.31 229.79 z" style="fill:#2E3054;" /></g><path d="M88.29 95.49 C87.91 100.26 88.51 103.85 92 104.52 C95.49 105.2 101.76 103.55 101.76 103.55 C101.76 103.55 102.97 101.99 100.82 101.12 C98.68 100.25 99.12 97.94 101.1 98.49 C101.1 98.49 101.78 99.28 103.75 98.12 C105.72 96.95 105.75 95.8 105.9 94.17 C106.08 92.31 103.86 90.38 102.2 91.38 C105.43 84.72 91.45 86.58 89.18 91.74 C88.7 92.83 88.39 94.14 88.29 95.5 z" style="fill:#2E3054;" /><path d="M105.76 113.48 C107.94 113.93 112.98 118.16 110.95 123.88 C108.92 129.6 107.74 156.32 107.74 156.32 L84.54 157.49 C84.54 157.49 84.83 151.25 83.8 145.12 C82.78 138.99 79.25 118.15 85.12 114.62 C90.99 111.1 96.06 112.8 100.06 113.05 C101.91 113.17 103.97 113.1 105.75 113.47 z" style="fill:#FA7071;" /></g><path d="M129.44 120.03 C129.12 119.98 128.73 119.83 128.27 119.55 C127.59 119.13 126.61 118.55 127.08 117.76 C129.26 114.14 131.49 109.74 132.86 105.8 C133.5 103.95 133.51 102.9 134.75 101.33 C136.77 102.62 134.04 105.54 135.18 107.29 C135.66 108.02 136.96 108.19 137.46 108.91 C138.2 109.99 137.09 112.2 136.67 112.48 C136.25 112.76 134.71 113.83 133.66 114.54 C132.61 115.24 131.85 116.87 131.6 117.49 C131.02 118.93 130.64 120.2 129.44 120.03 z" style="fill:#BA6B4F;" /><path d="M108.33 115.22 C109.14 115.22 118.79 128.95 119.38 129.31 C119.97 129.68 128.96 112.79 128.96 112.79 L134.02 115.21 C134.02 115.21 121.72 138.15 121.03 138.22 C120.33 138.29 108.81 136.46 106.72 130.29 C104.63 124.12 107.53 115.21 108.33 115.21 z" style="fill:#FA989C;" /></g><g><path d="M154.04 101.25 C148.58 101.25 144.15 105.68 144.15 111.14 C144.15 116.6 154.04 129.07 154.04 129.07 C154.04 129.07 163.93 116.6 163.93 111.14 C163.93 105.68 159.5 101.25 154.04 101.25 z" style="fill:#7AB6F6;" /><path d="M161.15 109.27 C161.13 108.71 160.91 108.43 160.22 107.64 C160.2 107.62 158.36 105.55 157.65 105.44 C157.22 105.38 153.45 104.83 152.46 105.05 C151.84 105.19 151.34 105.91 150.81 106.67 C150.44 107.21 149.97 107.88 149.65 107.96 C149.47 108.01 149.25 108.06 149.02 108.11 C148 108.33 146.72 108.6 146.59 109.54 C146.45 110.54 146.38 111.54 147.04 111.88 C147.34 112.03 147.78 112.06 148.25 112.05 C148.48 112.93 149.27 113.59 150.23 113.59 C151.19 113.59 151.97 112.94 152.2 112.06 L155.39 112.06 C155.63 112.94 156.42 113.59 157.36 113.59 C158.3 113.59 159.08 112.95 159.32 112.09 L160.25 112.09 C160.5 112.09 160.73 112 160.9 111.82 C161.08 111.65 161.17 111.41 161.18 111.17 C161.18 111.11 161.18 109.68 161.16 109.26 z M150.21 112.85 C149.49 112.85 148.9 112.26 148.9 111.54 C148.9 110.82 149.49 110.23 150.21 110.23 C150.93 110.23 151.52 110.82 151.52 111.54 C151.52 112.26 150.94 112.85 150.21 112.85 z M157.35 112.85 C156.63 112.85 156.04 112.26 156.04 111.54 C156.04 110.82 156.63 110.23 157.35 110.23 C158.07 110.23 158.66 110.82 158.66 111.54 C158.66 112.26 158.07 112.85 157.35 112.85 z M160.37 111.3 C160.37 111.3 160.31 111.35 160.24 111.35 L159.38 111.35 C159.28 110.31 158.42 109.49 157.35 109.49 C156.28 109.49 155.43 110.3 155.32 111.33 C154.88 111.33 152.96 111.33 152.24 111.32 C152.13 110.29 151.27 109.49 150.21 109.49 C149.15 109.49 148.3 110.29 148.18 111.31 C147.9 111.31 147.52 111.3 147.36 111.22 C147.29 111.18 147.13 110.95 147.31 109.65 C147.37 109.22 148.45 108.99 149.16 108.84 C149.4 108.79 149.63 108.74 149.83 108.68 C150.42 108.52 150.9 107.83 151.41 107.09 C151.79 106.54 152.27 105.85 152.61 105.77 C153.26 105.62 155.9 105.93 157.54 106.17 C157.82 106.28 158.93 107.29 159.65 108.12 C160.33 108.9 160.39 109.03 160.4 109.3 C160.42 109.7 160.42 111.16 160.42 111.17 C160.42 111.23 160.39 111.28 160.37 111.3 z" style="fill:white;" /></g><g><path d="M123.17 83.1 C119.87 83.1 117.19 85.78 117.19 89.08 C117.19 92.38 123.17 100.02 123.17 100.02 C123.17 100.02 129.15 92.38 129.15 89.08 C129.15 85.78 126.47 83.1 123.17 83.1 z" style="fill:#B0B2FF;" /><path d="M127.63 87.88 C127.61 87.55 127.48 87.38 127.07 86.91 C127.06 86.9 125.96 85.67 125.54 85.6 C125.29 85.56 123.04 85.24 122.45 85.37 C122.08 85.45 121.78 85.88 121.47 86.34 C121.25 86.66 120.97 87.06 120.78 87.11 C120.67 87.14 120.54 87.17 120.4 87.2 C119.79 87.33 119.03 87.49 118.95 88.05 C118.87 88.65 118.82 89.24 119.22 89.44 C119.4 89.53 119.68 89.54 119.96 89.54 C120.1 90.06 120.55 90.46 121.12 90.46 C121.69 90.46 122.14 90.07 122.28 89.55 L124.22 89.55 C124.36 90.07 124.82 90.46 125.38 90.46 C125.94 90.46 126.39 90.08 126.53 89.57 L127.1 89.57 C127.25 89.57 127.38 89.52 127.49 89.41 C127.59 89.31 127.65 89.17 127.65 89.02 C127.65 88.98 127.65 88.13 127.65 87.88 z M121.12 90.01 C120.69 90.01 120.34 89.66 120.34 89.23 C120.34 88.8 120.69 88.45 121.12 88.45 C121.55 88.45 121.9 88.8 121.9 89.23 C121.9 89.66 121.55 90.01 121.12 90.01 z M125.37 90.01 C124.94 90.01 124.59 89.66 124.59 89.23 C124.59 88.8 124.94 88.45 125.37 88.45 C125.8 88.45 126.15 88.8 126.15 89.23 C126.15 89.66 125.8 90.01 125.37 90.01 z M127.17 89.09 C127.17 89.09 127.13 89.12 127.09 89.12 L126.56 89.12 C126.5 88.5 126 88.01 125.36 88.01 C124.72 88.01 124.23 88.49 124.17 89.11 L122.31 89.11 C122.24 88.49 121.74 88.01 121.12 88.01 C120.5 88.01 120 88.49 119.93 89.09 C119.76 89.09 119.53 89.09 119.43 89.03 C119.39 89.01 119.3 88.87 119.4 88.09 C119.43 87.83 120.08 87.7 120.5 87.61 C120.64 87.58 120.78 87.55 120.9 87.52 C121.25 87.42 121.54 87.01 121.84 86.57 C122.07 86.24 122.35 85.83 122.56 85.78 C122.94 85.69 124.52 85.87 125.49 86.02 C125.65 86.09 126.32 86.69 126.74 87.18 C127.14 87.65 127.18 87.72 127.19 87.88 C127.19 88.12 127.19 88.99 127.19 89 C127.19 89.04 127.17 89.06 127.16 89.08 z" style="fill:white;" /></g><g><path d="M145.88 152.4 C141.26 152.4 137.51 156.15 137.51 160.77 C137.51 165.39 145.88 175.94 145.88 175.94 C145.88 175.94 154.25 165.39 154.25 160.77 C154.25 156.15 150.5 152.4 145.88 152.4 z" style="fill:#6B6AA4;" /><path d="M151.26 158.99 C151.24 158.56 151.07 158.34 150.54 157.73 C150.52 157.71 149.1 156.12 148.55 156.03 C148.22 155.98 145.31 155.56 144.55 155.73 C144.07 155.84 143.68 156.39 143.28 156.98 C142.99 157.39 142.63 157.91 142.38 157.98 C142.24 158.02 142.07 158.05 141.89 158.09 C141.1 158.26 140.11 158.47 140.02 159.2 C139.91 159.97 139.85 160.75 140.37 161.01 C140.6 161.13 140.94 161.14 141.3 161.14 C141.48 161.82 142.09 162.33 142.83 162.33 C143.57 162.33 144.17 161.83 144.35 161.15 L146.82 161.15 C147 161.83 147.61 162.33 148.34 162.33 C149.07 162.33 149.67 161.84 149.86 161.17 L150.58 161.17 C150.77 161.17 150.95 161.1 151.08 160.97 C151.22 160.84 151.29 160.66 151.29 160.47 C151.29 160.42 151.29 159.32 151.28 159 z M142.82 161.75 C142.26 161.75 141.81 161.3 141.81 160.74 C141.81 160.18 142.26 159.73 142.82 159.73 C143.38 159.73 143.83 160.18 143.83 160.74 C143.83 161.3 143.38 161.75 142.82 161.75 z M148.33 161.75 C147.78 161.75 147.32 161.3 147.32 160.74 C147.32 160.18 147.77 159.73 148.33 159.73 C148.89 159.73 149.34 160.18 149.34 160.74 C149.34 161.3 148.89 161.75 148.33 161.75 z M150.66 160.56 C150.66 160.56 150.61 160.6 150.56 160.6 L149.89 160.6 C149.81 159.8 149.14 159.16 148.32 159.16 C147.5 159.16 146.84 159.79 146.76 160.58 C146.45 160.58 144.93 160.58 144.38 160.58 C144.29 159.79 143.63 159.17 142.82 159.17 C142.01 159.17 141.34 159.79 141.26 160.58 C141.04 160.58 140.75 160.58 140.62 160.51 C140.56 160.48 140.45 160.3 140.58 159.29 C140.62 158.96 141.46 158.78 142.01 158.67 C142.2 158.63 142.38 158.59 142.53 158.55 C142.98 158.43 143.36 157.89 143.75 157.32 C144.05 156.89 144.41 156.36 144.68 156.3 C145.18 156.19 147.22 156.42 148.48 156.61 C148.69 156.7 149.55 157.47 150.11 158.11 C150.63 158.71 150.68 158.81 150.69 159.02 C150.7 159.33 150.7 160.46 150.7 160.47 C150.7 160.52 150.67 160.55 150.66 160.57 z" style="fill:white;" /></g><g><path d="M37.81 231.29 C32.22 227.34 29.74 217.81 33.33 212.11 C35.72 211.8 36.36 214.31 36.11 216.22 C36.11 213.19 37.42 208.55 39.27 206.12 C42.59 201.77 44.87 206.98 44.32 210.65 C43.86 213.7 41.18 216.22 39.99 219.05 C38.61 222.34 38.65 225.78 38.65 229.59 L37.8 231.29 z" style="fill:#F3A9B8;" /><path d="M37.26 231.46 C37.09 229.63 36.3 226.33 37.18 224.58 C38.51 221.91 39.34 224.97 38.88 226.51 C40.38 224.07 41.83 218 44.28 216.55 C47.93 214.39 44.05 221.72 43.71 222.8 C45.3 222.07 50.27 217.39 51.35 219.99 C52.58 222.91 45.63 225.68 43.96 227.01 C45.44 227.31 47.23 227.98 47.46 229.66 C45.23 231.44 43.69 230.53 41.3 230.3 C40.66 232.21 38.12 234.23 38.12 234.23 L37.25 231.47 z" style="fill:#7AB6F6;" /><path d="M38.02 232.63 C37.56 231.98 34.17 221.35 33.06 226.02 C31.89 223.77 28.26 215.99 24.99 219.55 C21.88 222.95 26.51 227.66 30 227.94 C28.45 229.06 26.21 230.98 29.15 231.92 C31.17 232.56 33.91 231.25 35.92 231.22 L38.02 232.62 z" style="fill:#2A2B7C;" /></g></g></svg>